<svg width="36" height="24" viewBox="0 0 36 24" fill="none" xmlns="http://www.w3.org/2000/svg">
<rect x="1.18887" y="0.559815" width="33.5905" height="22.8805" rx="2.6775" fill="white" stroke="#EAEBED" stroke-width="0.486818"/>
<path fill-rule="evenodd" clip-rule="evenodd" d="M10.273 8.43961C9.98692 8.78223 9.52928 9.05246 9.07163 9.01386C9.01442 8.5506 9.23848 8.05838 9.50067 7.75437C9.7867 7.4021 10.2873 7.15116 10.6925 7.13186C10.7401 7.61442 10.5542 8.08734 10.273 8.43961ZM10.6877 9.10554C10.2845 9.08205 9.9166 9.22828 9.61945 9.34639C9.42822 9.4224 9.26629 9.48677 9.1431 9.48677C9.00485 9.48677 8.83623 9.41896 8.64691 9.34283C8.39885 9.24307 8.11523 9.12902 7.81782 9.1345C7.13612 9.14415 6.50208 9.53502 6.15408 10.1575C5.439 11.4025 5.96816 13.2459 6.6594 14.2593C6.99787 14.7612 7.40308 15.3113 7.937 15.292C8.1719 15.283 8.34086 15.2105 8.51573 15.1353C8.71705 15.0489 8.92619 14.959 9.25274 14.959C9.56797 14.959 9.76796 15.0465 9.95994 15.1305C10.1425 15.2104 10.3178 15.2871 10.578 15.2824C11.131 15.2727 11.479 14.7805 11.8175 14.2786C12.1827 13.74 12.3433 13.2143 12.3676 13.1345L12.3705 13.1253C12.3699 13.1247 12.3654 13.1226 12.3574 13.1189C12.2353 13.0623 11.302 12.6298 11.2931 11.4701C11.2841 10.4967 12.0333 10.0035 12.1513 9.92582L12.1513 9.92582C12.1585 9.92109 12.1633 9.91791 12.1655 9.91625C11.6888 9.20206 10.9451 9.12485 10.6877 9.10554ZM14.5157 15.2293V7.70611H17.3045C18.7442 7.70611 19.7501 8.70984 19.7501 10.1768C19.7501 11.6438 18.7252 12.6572 17.2664 12.6572H15.6694V15.2293H14.5157ZM15.6693 8.69054H16.9993C18.0005 8.69054 18.5725 9.23101 18.5725 10.1817C18.5725 11.1323 18.0005 11.6776 16.9946 11.6776H15.6693V8.69054ZM23.5591 14.3269C23.254 14.9156 22.5819 15.2872 21.8573 15.2872C20.7846 15.2872 20.0362 14.6405 20.0362 13.6658C20.0362 12.7006 20.7608 12.1457 22.1004 12.0637L23.5401 11.9768V11.5618C23.5401 10.9489 23.1444 10.616 22.4388 10.616C21.8573 10.616 21.433 10.92 21.3472 11.3832H20.3079C20.3413 10.4085 21.2471 9.6991 22.4722 9.6991C23.7927 9.6991 24.6508 10.3988 24.6508 11.4846V15.2293H23.583V14.3269H23.5591ZM22.167 14.3944C21.5521 14.3944 21.1612 14.0953 21.1612 13.6368C21.1612 13.1639 21.5378 12.8888 22.2576 12.8454L23.54 12.7634V13.188C23.54 13.8926 22.9489 14.3944 22.167 14.3944ZM28.1928 15.5236C27.7304 16.841 27.2012 17.2753 26.0762 17.2753C25.9903 17.2753 25.7043 17.2657 25.6376 17.2464V16.344C25.7091 16.3537 25.8855 16.3633 25.976 16.3633C26.4861 16.3633 26.7722 16.1461 26.9486 15.5815L27.0534 15.2486L25.0989 9.77149H26.305L27.6636 14.2159H27.6875L29.0461 9.77149H30.2188L28.1928 15.5236Z" fill="#282739"/>
</svg>
