<svg width="58" height="10" viewBox="0 0 58 10" fill="none" xmlns="http://www.w3.org/2000/svg">
<path d="M1.78576 3.66006H2.68334C2.83786 3.67931 2.99468 3.66633 3.14393 3.62196C3.29318 3.57758 3.43162 3.50277 3.55053 3.40224C3.66943 3.30171 3.76622 3.17763 3.8348 3.03784C3.90337 2.89805 3.94225 2.74556 3.94897 2.59C3.94897 1.97092 3.48315 1.57102 2.69323 1.57102C2.53493 1.5489 2.3738 1.55872 2.21935 1.5999C2.06491 1.64109 1.92028 1.7128 1.79401 1.81081C1.66775 1.90881 1.56239 2.03112 1.48417 2.17052C1.40596 2.30991 1.35646 2.46357 1.33861 2.62241H0.353115C0.370077 2.33407 0.446214 2.05231 0.576786 1.79468C0.707357 1.53704 0.889568 1.30904 1.11207 1.12487C1.33458 0.940705 1.59262 0.804313 1.87012 0.724189C2.14762 0.644066 2.43864 0.621927 2.72506 0.659149C4.04671 0.659149 4.97732 1.39907 4.97732 2.4642C4.98042 2.82103 4.86103 3.16812 4.63909 3.44754C4.41715 3.72696 4.10608 3.9218 3.75782 3.99954V4.07864C4.17069 4.09696 4.55952 4.27799 4.8393 4.58216C5.11908 4.88634 5.26705 5.28891 5.25086 5.70187C5.2203 5.99875 5.13079 6.28654 4.98757 6.54838C4.84435 6.81021 4.65031 7.04083 4.41681 7.2267C4.18331 7.41257 3.91505 7.54995 3.62776 7.63081C3.34048 7.71166 3.03994 7.73435 2.74377 7.69754C2.44699 7.73801 2.14509 7.7183 1.85608 7.63959C1.56707 7.56089 1.29687 7.4248 1.06158 7.23944C0.826288 7.05408 0.630724 6.82324 0.486552 6.56068C0.34238 6.29813 0.252549 6.00923 0.222412 5.71122H1.22327C1.28369 6.35337 1.87367 6.7676 2.74377 6.7676C3.61388 6.7676 4.18188 6.30233 4.18188 5.64644C4.18188 4.98122 3.64685 4.57143 2.71191 4.57143H1.78576V3.66006Z" fill="#282739"/>
<path d="M6.38794 6.10192C6.38794 5.19005 7.06799 4.66436 8.27209 4.58965L9.64429 4.51055V4.0733C9.64429 3.53826 9.29162 3.23614 8.60718 3.23614C8.04908 3.23614 7.66345 3.44104 7.55139 3.79919H6.5835C6.68567 2.92907 7.50525 2.37097 8.65442 2.37097C9.92444 2.37097 10.6408 3.00322 10.6408 4.0733V7.53454H9.67725V6.82263H9.59815C9.43759 7.078 9.21214 7.28618 8.94482 7.42591C8.67749 7.56565 8.37787 7.63194 8.07654 7.618C7.86388 7.64013 7.64894 7.61744 7.44558 7.5514C7.24223 7.48537 7.05497 7.37745 6.89587 7.23461C6.73678 7.09177 6.60938 6.91717 6.5219 6.72208C6.43441 6.52699 6.38878 6.31573 6.38794 6.10192V6.10192ZM9.64429 5.66906V5.24554L8.40718 5.32464C7.70954 5.37132 7.39314 5.60863 7.39314 6.05522C7.39314 6.51115 7.78864 6.77647 8.33251 6.77647C8.49187 6.79261 8.65284 6.77652 8.80585 6.72918C8.95886 6.68183 9.10078 6.60418 9.22317 6.50086C9.34556 6.39754 9.44591 6.27065 9.51826 6.12775C9.5906 5.98485 9.63347 5.82886 9.64429 5.66906V5.66906Z" fill="#282739"/>
<path d="M13.2939 3.31031V7.53455H12.2942V2.46875H15.6297V3.31025L13.2939 3.31031Z" fill="#282739"/>
<path d="M21.6886 5.00026C21.6886 6.60975 20.8745 7.61885 19.5957 7.61885C19.2818 7.64029 18.9683 7.57159 18.6921 7.42085C18.4159 7.2701 18.1885 7.04358 18.0368 6.76796H17.9576V9.21956H16.9579V2.46956H17.9203V3.30675H17.995C18.1495 3.0215 18.3798 2.7845 18.6606 2.62193C18.9413 2.45937 19.2615 2.37756 19.5858 2.38554C20.8745 2.38551 21.6886 3.3902 21.6886 5.00026ZM20.6603 5.00026C20.6603 3.93019 20.1538 3.28364 19.3068 3.28364C18.4653 3.28364 17.939 3.94392 17.939 5.00465C17.939 6.06044 18.4652 6.72127 19.3024 6.72127C20.1538 6.72126 20.6603 6.07471 20.6603 5.00026Z" fill="#282739"/>
<path d="M23.0201 9.34895V8.48816C23.1283 8.50191 23.2373 8.50815 23.3464 8.50684C23.5594 8.52261 23.7707 8.45918 23.9398 8.3287C24.1089 8.19823 24.2239 8.0099 24.2626 7.79986L24.3373 7.55322L22.5037 2.46875H23.5925L24.8625 6.49249H24.9416L26.2073 2.46875H27.2674L25.3789 7.74384C24.946 8.9765 24.467 9.37202 23.4343 9.37202C23.3508 9.37201 23.1135 9.36267 23.0201 9.34895Z" fill="#282739"/>
<path d="M28.0464 6.0971H29.0418C29.1395 6.54372 29.5581 6.7766 30.1437 6.7766C30.8095 6.7766 31.2181 6.48327 31.2181 6.02735C31.2181 5.53901 30.8512 5.3061 30.1437 5.3061H29.3856V4.52937H30.1305C30.7347 4.52937 31.0424 4.29701 31.0424 3.87349C31.0424 3.5016 30.7446 3.21762 30.1305 3.21762C29.5713 3.21762 29.1626 3.45493 29.0977 3.85483H28.1343C28.2063 3.39531 28.4558 2.98242 28.8291 2.70495C29.2024 2.42749 29.6697 2.30762 30.1305 2.37112C31.3346 2.37112 32.0234 2.9155 32.0234 3.77133C32.0291 4.00966 31.9527 4.24269 31.8071 4.43146C31.6615 4.62024 31.4556 4.75332 31.2236 4.80845V4.88754C31.4998 4.92316 31.7532 5.0589 31.9359 5.26901C32.1185 5.47912 32.2177 5.74898 32.2146 6.02737C32.2146 6.99037 31.395 7.62753 30.1437 7.62753C29.0374 7.62749 28.1387 7.12048 28.0464 6.0971Z" fill="#282739"/>
<path d="M33.6544 7.53454V2.46875H34.6453V5.95308H34.7244L37.059 2.46876H38.05V7.53456H37.059V4.03158H36.9843L34.6453 7.53457L33.6544 7.53454Z" fill="#282739"/>
<path d="M43.5091 3.3111H41.9138V7.53535H40.913V3.3111H39.3177V2.4696H43.5091V3.3111Z" fill="#282739"/>
<path d="M48.8946 6.16684C48.7584 6.6298 48.4638 7.03019 48.0624 7.29806C47.661 7.56594 47.1782 7.68428 46.6984 7.63241C46.3647 7.64122 46.033 7.5773 45.7264 7.44508C45.4199 7.31286 45.1458 7.11551 44.9231 6.86673C44.7005 6.61795 44.5346 6.32369 44.4371 6.00439C44.3396 5.68509 44.3127 5.34839 44.3583 5.01766C44.3139 4.68592 44.3412 4.34849 44.4385 4.02824C44.5358 3.70798 44.7008 3.41237 44.9223 3.16141C45.1438 2.91045 45.4166 2.71001 45.7222 2.57365C46.0279 2.43729 46.3593 2.3682 46.694 2.37106C48.1036 2.37106 48.955 3.33406 48.955 4.92481V5.27367H45.3779V5.32969C45.362 5.51563 45.3853 5.70283 45.4461 5.87926C45.5069 6.05568 45.604 6.21743 45.731 6.35411C45.8581 6.49079 46.0123 6.59937 46.1839 6.67288C46.3554 6.74639 46.5404 6.7832 46.727 6.78094C46.966 6.80952 47.2081 6.76639 47.4225 6.65703C47.6369 6.54768 47.8139 6.37704 47.9311 6.16681L48.8946 6.16684ZM45.3778 4.53427H47.9355C47.9481 4.36434 47.925 4.19365 47.8678 4.03315C47.8106 3.87265 47.7204 3.7259 47.6031 3.60232C47.4857 3.47874 47.3439 3.38106 47.1866 3.31556C47.0292 3.25005 46.86 3.21817 46.6896 3.22196C46.5167 3.21961 46.345 3.25195 46.1847 3.31707C46.0245 3.3822 45.8789 3.47878 45.7566 3.60112C45.6343 3.72346 45.5378 3.86907 45.4728 4.02935C45.4077 4.18962 45.3754 4.36132 45.3779 4.53427H45.3778Z" fill="#282739"/>
<path d="M53.1331 2.46875H55.4172C56.4081 2.46875 56.9893 2.97083 56.9893 3.75687C56.9909 4.0063 56.9067 4.24868 56.7509 4.44347C56.5951 4.63826 56.3771 4.77363 56.1335 4.82694V4.90604C56.4293 4.92473 56.7067 5.05634 56.9083 5.27367C57.1099 5.49101 57.2203 5.77747 57.2167 6.07389C57.2167 6.95774 56.5521 7.53452 55.4402 7.53452H53.1331V2.46875ZM54.1241 3.23615V4.54789H55.1151C55.7193 4.54789 56.0082 4.31554 56.0082 3.88707C56.0082 3.49212 55.7567 3.23613 55.226 3.23613L54.1241 3.23615ZM54.1241 5.2829V6.76716H55.3096C55.9006 6.76716 56.217 6.50624 56.217 6.02724C56.217 5.52022 55.8589 5.28291 55.1843 5.28291L54.1241 5.2829Z" fill="#282739"/>
</svg>
