<svg width="85" height="18" viewBox="0 0 85 18" fill="none" xmlns="http://www.w3.org/2000/svg">
<path d="M9.04474 10.5321H3.71966L2.44085 14.3081H0.185364L5.22919 0.337891H7.57256L12.6164 14.3081H10.3224L9.04474 10.5321ZM4.27118 8.7897H8.49218L6.41136 2.66152H6.35308L4.27118 8.7897Z" fill="#282739"/>
<path d="M23.5093 9.21576C23.5093 12.3809 21.8152 14.4145 19.2587 14.4145C18.6111 14.4484 17.967 14.2992 17.4003 13.984C16.8335 13.6689 16.3669 13.2005 16.054 12.6325H16.0056V17.6774H13.9149V4.12249H15.9386V5.81658H15.9771C16.3044 5.25131 16.7788 4.78534 17.3499 4.46827C17.921 4.15119 18.5673 3.99486 19.2202 4.01592C21.8053 4.01593 23.5093 6.05938 23.5093 9.21576ZM21.3604 9.21576C21.3604 7.15363 20.2947 5.7979 18.6687 5.7979C17.0713 5.7979 15.9969 7.18218 15.9969 9.21576C15.9969 11.268 17.0713 12.6424 18.6687 12.6424C20.2947 12.6424 21.3603 11.2966 21.3603 9.21576H21.3604Z" fill="#282739"/>
<path d="M34.7203 9.21576C34.7203 12.3809 33.0257 14.4145 30.4691 14.4145C29.8215 14.4484 29.1775 14.2992 28.6107 13.984C28.0439 13.6689 27.5774 13.2005 27.2644 12.6325H27.2161V17.6774H25.1254V4.12249H27.149V5.81658H27.1875C27.5148 5.25131 27.9893 4.78534 28.5604 4.46827C29.1314 4.15119 29.7778 3.99486 30.4307 4.01592C33.0158 4.01593 34.7203 6.05938 34.7203 9.21576ZM32.5708 9.21576C32.5708 7.15363 31.5052 5.7979 29.8792 5.7979C28.2818 5.7979 27.2073 7.18218 27.2073 9.21576C27.2073 11.268 28.2818 12.6424 29.8792 12.6424C31.5052 12.6424 32.5708 11.2966 32.5708 9.21576V9.21576Z" fill="#282739"/>
<path d="M42.1284 10.4157C42.2833 11.8011 43.6292 12.7107 45.4683 12.7107C47.2305 12.7107 48.4983 11.801 48.4983 10.5519C48.4983 9.46753 47.7336 8.81826 45.9231 8.3733L44.1125 7.93714C41.5472 7.31751 40.3563 6.1178 40.3563 4.17102C40.3563 1.76062 42.4569 0.10498 45.4386 0.10498C48.3917 0.10498 50.4154 1.76062 50.4835 4.17102H48.373C48.2467 2.77686 47.0942 1.93531 45.41 1.93531C43.7258 1.93531 42.5733 2.78675 42.5733 4.02601C42.5733 5.01368 43.3094 5.59486 45.1101 6.03976L46.6493 6.41769C49.5156 7.09555 50.7054 8.24694 50.7054 10.2904C50.7054 12.904 48.6246 14.541 45.3133 14.541C42.2151 14.541 40.1234 12.9425 39.9882 10.4156L42.1284 10.4157Z" fill="#282739"/>
<path d="M55.2197 1.71228V4.12268H57.1566V5.77832H55.2197V11.3934C55.2197 12.2657 55.6075 12.6722 56.459 12.6722C56.6889 12.6682 56.9185 12.6521 57.1467 12.6239V14.2696C56.7639 14.3411 56.3748 14.3735 55.9855 14.3663C53.9233 14.3663 53.1191 13.5918 53.1191 11.6164V5.77832H51.6382V4.12268H53.1191V1.71228H55.2197Z" fill="#282739"/>
<path d="M58.2772 9.21594C58.2772 6.01123 60.1647 3.99744 63.1079 3.99744C66.061 3.99744 67.9397 6.01119 67.9397 9.21594C67.9397 12.4294 66.0709 14.4344 63.1079 14.4344C60.146 14.4344 58.2772 12.4294 58.2772 9.21594ZM65.8094 9.21594C65.8094 7.01758 64.802 5.72009 63.1079 5.72009C61.4138 5.72009 60.4064 7.02747 60.4064 9.21594C60.4064 11.4231 61.4138 12.7107 63.1079 12.7107C64.802 12.7107 65.8094 11.4231 65.8094 9.21594H65.8094Z" fill="#282739"/>
<path d="M69.6635 4.12239H71.6575V5.85602H71.7059C71.8408 5.31457 72.158 4.83607 72.6041 4.50095C73.0503 4.16583 73.5982 3.99452 74.1558 4.01581C74.3967 4.01497 74.637 4.04113 74.8721 4.09382V6.04938C74.568 5.95644 74.2507 5.91376 73.9327 5.92304C73.629 5.91072 73.3262 5.96427 73.0451 6.08002C72.7641 6.19577 72.5114 6.37097 72.3044 6.5936C72.0974 6.81622 71.9411 7.081 71.8461 7.36976C71.7511 7.65851 71.7198 7.9644 71.7542 8.26642V14.3078H69.6635L69.6635 4.12239Z" fill="#282739"/>
<path d="M84.5115 11.3165C84.2302 13.1655 82.4295 14.4344 80.1257 14.4344C77.1627 14.4344 75.3236 12.4492 75.3236 9.26428C75.3236 6.06946 77.1726 3.99744 80.0378 3.99744C82.8558 3.99744 84.6279 5.93322 84.6279 9.02148V9.73779H77.4341V9.86413C77.4009 10.239 77.4478 10.6166 77.5718 10.9719C77.6957 11.3272 77.8938 11.6521 78.153 11.925C78.4121 12.1979 78.7264 12.4125 79.0748 12.5546C79.4233 12.6967 79.798 12.763 80.1741 12.7491C80.6681 12.7954 81.1639 12.681 81.5877 12.4229C82.0115 12.1648 82.3407 11.7767 82.5262 11.3165L84.5115 11.3165ZM77.444 8.27661H82.5361C82.5549 7.93956 82.5038 7.60228 82.386 7.28592C82.2683 6.96956 82.0864 6.68095 81.8518 6.43821C81.6172 6.19548 81.335 6.00385 81.0228 5.87536C80.7107 5.74686 80.3753 5.68428 80.0378 5.69153C79.6974 5.6895 79.3599 5.75491 79.0448 5.884C78.7298 6.01308 78.4434 6.20328 78.2023 6.44362C77.9611 6.68396 77.77 6.96967 77.6398 7.28428C77.5096 7.59889 77.4431 7.93615 77.444 8.27662V8.27661Z" fill="#282739"/>
</svg>
