<svg width="136" height="45" viewBox="0 0 136 45" fill="none" xmlns="http://www.w3.org/2000/svg">
<path d="M124.357 2.41797e-05H11.1817C10.7692 2.41797e-05 10.3616 2.41797e-05 9.95014 0.00227418C9.60573 0.00452418 9.26405 0.0110604 8.91633 0.0165617C8.1609 0.0254512 7.40726 0.09191 6.66194 0.21536C5.91766 0.341498 5.19671 0.579304 4.52345 0.920735C3.85101 1.26505 3.23659 1.71246 2.70247 2.24673C2.16554 2.77949 1.71797 3.39529 1.37697 4.07045C1.03503 4.74427 0.797921 5.46633 0.673844 6.21169C0.548588 6.95611 0.481186 7.70911 0.472244 8.46394C0.461804 8.80886 0.460701 9.15494 0.4552 9.49991V35.5034C0.460701 35.8528 0.461804 36.1912 0.472244 36.5406C0.481189 37.2954 0.54859 38.0483 0.673844 38.7927C0.797578 39.5385 1.0347 40.261 1.37697 40.9351C1.71782 41.608 2.16545 42.2213 2.70247 42.7511C3.23456 43.2878 3.84938 43.7355 4.52345 44.0772C5.1967 44.4195 5.91758 44.6587 6.66194 44.7868C7.40738 44.9093 8.16095 44.9758 8.91633 44.9857C9.26405 44.9934 9.60573 44.9978 9.95014 44.9978C10.3616 45 10.7692 45 11.1817 45H124.357C124.761 45 125.172 45 125.576 44.9978C125.919 44.9978 126.271 44.9934 126.613 44.9857C127.367 44.9763 128.12 44.9098 128.863 44.7868C129.61 44.6578 130.334 44.4187 131.01 44.0772C131.684 43.7353 132.298 43.2876 132.83 42.7511C133.365 42.2193 133.814 41.6064 134.159 40.9351C134.499 40.2605 134.733 39.5381 134.855 38.7927C134.981 38.0482 135.051 37.2954 135.064 36.5406C135.069 36.1912 135.069 35.8528 135.069 35.5034C135.077 35.0947 135.077 34.6883 135.077 34.2729V10.7282C135.077 10.3162 135.077 9.90749 135.069 9.49991C135.069 9.15494 135.069 8.80886 135.064 8.46389C135.051 7.709 134.981 6.95616 134.855 6.21164C134.733 5.46672 134.498 4.74471 134.159 4.07041C133.464 2.71712 132.363 1.61555 131.01 0.920634C130.334 0.580037 129.61 0.342295 128.863 0.215259C128.12 0.0912648 127.367 0.0247829 126.613 0.0164042C126.271 0.0109142 125.919 0.00432168 125.576 0.00212793C125.172 -0.00012207 124.761 -0.00012207 124.357 -0.00012207V2.41797e-05Z" fill="white"/>
<path d="M28.5765 22.3749C28.5891 21.3985 28.8485 20.441 29.3305 19.5918C29.8125 18.7425 30.5015 18.0289 31.3334 17.5175C30.805 16.7627 30.1078 16.1416 29.2973 15.7034C28.4867 15.2652 27.5852 15.0221 26.6643 14.9933C24.6997 14.787 22.7952 16.1688 21.7941 16.1688C20.7737 16.1688 19.2324 15.0137 17.5726 15.0479C16.499 15.0826 15.4528 15.3947 14.5357 15.954C13.6187 16.5133 12.8621 17.3006 12.3398 18.2392C10.0773 22.1564 11.7649 27.9135 13.9323 31.0799C15.0166 32.6304 16.2839 34.3624 17.9422 34.301C19.5649 34.2336 20.1709 33.2662 22.1297 33.2662C24.0702 33.2662 24.6388 34.301 26.3307 34.2619C28.072 34.2336 29.169 32.7045 30.2153 31.1393C30.9945 30.0345 31.594 28.8135 31.9917 27.5214C30.9801 27.0936 30.1168 26.3774 29.5095 25.4622C28.9022 24.547 28.5777 23.4733 28.5765 22.3749Z" fill="#282739"/>
<path d="M25.3808 12.9112C26.3302 11.7715 26.798 10.3065 26.6847 8.82754C25.2342 8.97988 23.8944 9.6731 22.9322 10.7691C22.4618 11.3045 22.1014 11.9274 21.8718 12.6021C21.6423 13.2769 21.5479 13.9903 21.5942 14.7015C22.3197 14.709 23.0374 14.5517 23.6933 14.2416C24.3492 13.9315 24.9262 13.4766 25.3808 12.9112V12.9112Z" fill="#282739"/>
<path d="M48.0447 30.5322H42.7197L41.4409 34.3082H39.1854L44.2292 20.3379H46.5726L51.6164 34.3082H49.3224L48.0447 30.5322ZM43.2712 28.7897H47.4922L45.4114 22.6615H45.3531L43.2712 28.7897Z" fill="#282739"/>
<path d="M62.5093 29.2157C62.5093 32.3809 60.8152 34.4144 58.2587 34.4144C57.6111 34.4483 56.967 34.2991 56.4003 33.984C55.8335 33.6688 55.3669 33.2004 55.054 32.6324H55.0056V37.6774H52.9149V24.1224H54.9386V25.8165H54.9771C55.3044 25.2512 55.7788 24.7853 56.3499 24.4682C56.921 24.1511 57.5674 23.9948 58.2202 24.0159C60.8053 24.0159 62.5093 26.0593 62.5093 29.2157ZM60.3604 29.2157C60.3604 27.1536 59.2947 25.7978 57.6687 25.7978C56.0713 25.7978 54.9969 27.1821 54.9969 29.2157C54.9969 31.2679 56.0713 32.6423 57.6687 32.6423C59.2947 32.6423 60.3603 31.2965 60.3603 29.2157H60.3604Z" fill="#282739"/>
<path d="M73.7203 29.2157C73.7203 32.3809 72.0257 34.4144 69.4692 34.4144C68.8215 34.4483 68.1775 34.2991 67.6107 33.984C67.044 33.6688 66.5774 33.2004 66.2645 32.6324H66.2161V37.6774H64.1254V24.1224H66.1491V25.8165H66.1875C66.5148 25.2512 66.9893 24.7853 67.5604 24.4682C68.1314 24.1511 68.7778 23.9948 69.4307 24.0159C72.0158 24.0159 73.7203 26.0593 73.7203 29.2157ZM71.5708 29.2157C71.5708 27.1536 70.5052 25.7978 68.8792 25.7978C67.2818 25.7978 66.2073 27.1821 66.2073 29.2157C66.2073 31.2679 67.2818 32.6423 68.8792 32.6423C70.5052 32.6423 71.5708 31.2965 71.5708 29.2157V29.2157Z" fill="#282739"/>
<path d="M81.1284 30.4157C81.2833 31.8011 82.6292 32.7107 84.4683 32.7107C86.2305 32.7107 87.4983 31.801 87.4983 30.5519C87.4983 29.4675 86.7336 28.8183 84.9231 28.3733L83.1126 27.9371C80.5473 27.3175 79.3563 26.1178 79.3563 24.171C79.3563 21.7606 81.4569 20.105 84.4386 20.105C87.3917 20.105 89.4154 21.7606 89.4835 24.171H87.373C87.2467 22.7769 86.0942 21.9353 84.41 21.9353C82.7258 21.9353 81.5734 22.7868 81.5734 24.026C81.5734 25.0137 82.3094 25.5949 84.1101 26.0398L85.6493 26.4177C88.5156 27.0955 89.7054 28.2469 89.7054 30.2904C89.7054 32.904 87.6246 34.541 84.3133 34.541C81.2152 34.541 79.1234 32.9425 78.9882 30.4156L81.1284 30.4157Z" fill="#282739"/>
<path d="M94.2197 21.7123V24.1227H96.1566V25.7783H94.2197V31.3934C94.2197 32.2657 94.6076 32.6722 95.459 32.6722C95.6889 32.6682 95.9185 32.6521 96.1467 32.6239V34.2696C95.7639 34.3411 95.3749 34.3735 94.9855 34.3663C92.9234 34.3663 92.1192 33.5918 92.1192 31.6164V25.7783H90.6382V24.1227H92.1191V21.7123H94.2197Z" fill="#282739"/>
<path d="M97.2772 29.2159C97.2772 26.0112 99.1647 23.9974 102.108 23.9974C105.061 23.9974 106.94 26.0112 106.94 29.2159C106.94 32.4295 105.071 34.4344 102.108 34.4344C99.146 34.4344 97.2772 32.4294 97.2772 29.2159ZM104.809 29.2159C104.809 27.0176 103.802 25.7201 102.108 25.7201C100.414 25.7201 99.4064 27.0275 99.4064 29.2159C99.4064 31.4231 100.414 32.7107 102.108 32.7107C103.802 32.7107 104.809 31.4231 104.809 29.2159H104.809Z" fill="#282739"/>
<path d="M108.663 24.1224H110.657V25.856H110.706C110.841 25.3146 111.158 24.8361 111.604 24.5009C112.05 24.1658 112.598 23.9945 113.156 24.0158C113.397 24.015 113.637 24.0411 113.872 24.0938V26.0494C113.568 25.9564 113.251 25.9137 112.933 25.923C112.629 25.9107 112.326 25.9643 112.045 26.08C111.764 26.1958 111.511 26.371 111.304 26.5936C111.097 26.8162 110.941 27.081 110.846 27.3697C110.751 27.6585 110.72 27.9644 110.754 28.2664V34.3078H108.663L108.663 24.1224Z" fill="#282739"/>
<path d="M123.511 31.3165C123.23 33.1655 121.43 34.4345 119.126 34.4345C116.163 34.4345 114.324 32.4492 114.324 29.2643C114.324 26.0695 116.173 23.9974 119.038 23.9974C121.856 23.9974 123.628 25.9332 123.628 29.0215V29.7378H116.434V29.8641C116.401 30.239 116.448 30.6166 116.572 30.9719C116.696 31.3273 116.894 31.6521 117.153 31.925C117.412 32.1979 117.726 32.4125 118.075 32.5546C118.423 32.6967 118.798 32.763 119.174 32.7491C119.668 32.7954 120.164 32.681 120.588 32.4229C121.012 32.1648 121.341 31.7767 121.526 31.3165L123.511 31.3165ZM116.444 28.2766H121.536C121.555 27.9396 121.504 27.6023 121.386 27.2859C121.268 26.9696 121.086 26.681 120.852 26.4382C120.617 26.1955 120.335 26.0039 120.023 25.8754C119.711 25.7469 119.375 25.6843 119.038 25.6915C118.697 25.6895 118.36 25.7549 118.045 25.884C117.73 26.0131 117.443 26.2033 117.202 26.4436C116.961 26.684 116.77 26.9697 116.64 27.2843C116.51 27.5989 116.443 27.9362 116.444 28.2766V28.2766Z" fill="#282739"/>
<path d="M41.7858 12.6601H42.6834C42.8379 12.6793 42.9947 12.6663 43.1439 12.622C43.2932 12.5776 43.4316 12.5028 43.5505 12.4023C43.6695 12.3017 43.7662 12.1777 43.8348 12.0379C43.9034 11.8981 43.9423 11.7456 43.949 11.59C43.949 10.9709 43.4832 10.571 42.6932 10.571C42.5349 10.5489 42.3738 10.5587 42.2194 10.5999C42.0649 10.6411 41.9203 10.7128 41.794 10.8108C41.6678 10.9088 41.5624 11.0311 41.4842 11.1705C41.406 11.3099 41.3565 11.4636 41.3386 11.6224H40.3531C40.3701 11.3341 40.4462 11.0523 40.5768 10.7947C40.7074 10.5371 40.8896 10.3091 41.1121 10.1249C41.3346 9.94072 41.5926 9.80433 41.8701 9.72421C42.1476 9.64409 42.4387 9.62195 42.7251 9.65917C44.0467 9.65917 44.9773 10.3991 44.9773 11.4642C44.9804 11.821 44.8611 12.1681 44.6391 12.4476C44.4172 12.727 44.1061 12.9218 43.7578 12.9996V13.0787C44.1707 13.097 44.5595 13.278 44.8393 13.5822C45.1191 13.8864 45.2671 14.2889 45.2509 14.7019C45.2203 14.9988 45.1308 15.2866 44.9876 15.5484C44.8444 15.8102 44.6503 16.0408 44.4168 16.2267C44.1833 16.4126 43.9151 16.55 43.6278 16.6308C43.3405 16.7117 43.04 16.7344 42.7438 16.6976C42.447 16.738 42.1451 16.7183 41.8561 16.6396C41.5671 16.5609 41.2969 16.4248 41.0616 16.2395C40.8263 16.0541 40.6307 15.8233 40.4866 15.5607C40.3424 15.2981 40.2526 15.0093 40.2224 14.7112H41.2233C41.2837 15.3534 41.8737 15.7676 42.7438 15.7676C43.6139 15.7676 44.1819 15.3023 44.1819 14.6465C44.1819 13.9812 43.6469 13.5714 42.7119 13.5714H41.7858V12.6601Z" fill="#282739"/>
<path d="M46.388 15.102C46.388 14.1901 47.068 13.6644 48.2721 13.5897L49.6443 13.5106V13.0733C49.6443 12.5383 49.2917 12.2362 48.6072 12.2362C48.0491 12.2362 47.6635 12.4411 47.5514 12.7992H46.5835C46.6857 11.9291 47.5053 11.371 48.6545 11.371C49.9245 11.371 50.6408 12.0033 50.6408 13.0733V16.5346H49.6773V15.8227H49.5982C49.4376 16.078 49.2122 16.2862 48.9449 16.4259C48.6775 16.5657 48.3779 16.632 48.0766 16.618C47.8639 16.6402 47.649 16.6175 47.4456 16.5514C47.2423 16.4854 47.055 16.3775 46.8959 16.2346C46.7368 16.0918 46.6094 15.9172 46.5219 15.7221C46.4344 15.527 46.3888 15.3158 46.388 15.102V15.102ZM49.6443 14.6691V14.2456L48.4072 14.3247C47.7096 14.3714 47.3932 14.6087 47.3932 15.0553C47.3932 15.5112 47.7887 15.7765 48.3325 15.7765C48.4919 15.7926 48.6529 15.7766 48.8059 15.7292C48.9589 15.6819 49.1008 15.6042 49.2232 15.5009C49.3456 15.3976 49.4459 15.2707 49.5183 15.1278C49.5906 14.9849 49.6335 14.8289 49.6443 14.6691V14.6691Z" fill="#282739"/>
<path d="M53.294 12.3103V16.5346H52.2942V11.4688H55.6297V12.3103L53.294 12.3103Z" fill="#282739"/>
<path d="M61.6886 14.0003C61.6886 15.6098 60.8745 16.6189 59.5957 16.6189C59.2818 16.6403 58.9683 16.5716 58.6921 16.4209C58.4159 16.2701 58.1886 16.0436 58.0368 15.768H57.9577V18.2196H56.9579V11.4696H57.9203V12.3068H57.995C58.1495 12.0215 58.3799 11.7846 58.6606 11.622C58.9413 11.4594 59.2615 11.3776 59.5859 11.3856C60.8745 11.3856 61.6886 12.3903 61.6886 14.0003ZM60.6603 14.0003C60.6603 12.9302 60.1538 12.2837 59.3068 12.2837C58.4653 12.2837 57.939 12.944 57.939 14.0047C57.939 15.0605 58.4653 15.7213 59.3024 15.7213C60.1538 15.7213 60.6603 15.0748 60.6603 14.0003Z" fill="#282739"/>
<path d="M63.0202 18.349V17.4882C63.1283 17.5019 63.2374 17.5082 63.3464 17.5068C63.5594 17.5226 63.7707 17.4592 63.9398 17.3287C64.1089 17.1982 64.2239 17.0099 64.2627 16.7999L64.3374 16.5532L62.5038 11.4688H63.5925L64.8626 15.4925H64.9417L66.2073 11.4688H67.2675L65.3789 16.7438C64.9461 17.9765 64.4671 18.372 63.4344 18.372C63.3509 18.372 63.1135 18.3627 63.0202 18.349Z" fill="#282739"/>
<path d="M68.0464 15.0971H69.0418C69.1396 15.5437 69.5582 15.7766 70.1437 15.7766C70.8095 15.7766 71.2182 15.4832 71.2182 15.0273C71.2182 14.539 70.8512 14.3061 70.1437 14.3061H69.3857V13.5293H70.1305C70.7348 13.5293 71.0424 13.297 71.0424 12.8735C71.0424 12.5016 70.7447 12.2176 70.1305 12.2176C69.5713 12.2176 69.1626 12.4549 69.0978 12.8548H68.1343C68.2063 12.3953 68.4558 11.9824 68.8291 11.7049C69.2025 11.4275 69.6698 11.3076 70.1305 11.3711C71.3346 11.3711 72.0235 11.9155 72.0235 12.7713C72.0291 13.0096 71.9527 13.2427 71.8072 13.4314C71.6616 13.6202 71.4556 13.7533 71.2237 13.8084V13.8875C71.4998 13.9231 71.7532 14.0589 71.9359 14.269C72.1186 14.4791 72.2178 14.749 72.2146 15.0273C72.2146 15.9903 71.3951 16.6275 70.1437 16.6275C69.0374 16.6275 68.1387 16.1205 68.0464 15.0971Z" fill="#282739"/>
<path d="M73.6544 16.5346V11.4688H74.6454V14.9531H74.7245L77.0591 11.4688H78.05V16.5346H77.0591V13.0316H76.9843L74.6454 16.5346L73.6544 16.5346Z" fill="#282739"/>
<path d="M83.5091 12.3112H81.9139V16.5354H80.913V12.3112H79.3178V11.4697H83.5091V12.3112Z" fill="#282739"/>
<path d="M88.8946 15.1668C88.7584 15.6298 88.4638 16.0302 88.0624 16.2981C87.661 16.5659 87.1782 16.6843 86.6984 16.6324C86.3647 16.6412 86.033 16.5773 85.7265 16.4451C85.4199 16.3128 85.1458 16.1155 84.9231 15.8667C84.7005 15.6179 84.5346 15.3237 84.4371 15.0044C84.3396 14.6851 84.3127 14.3484 84.3583 14.0177C84.3139 13.6859 84.3413 13.3485 84.4386 13.0282C84.5359 12.708 84.7008 12.4124 84.9223 12.1614C85.1438 11.9104 85.4166 11.71 85.7223 11.5736C86.0279 11.4373 86.3593 11.3682 86.694 11.371C88.1036 11.371 88.955 12.334 88.955 13.9248V14.2737H85.3779V14.3297C85.362 14.5156 85.3853 14.7028 85.4461 14.8792C85.5069 15.0557 85.604 15.2174 85.731 15.3541C85.8581 15.4908 86.0123 15.5994 86.1839 15.6729C86.3554 15.7464 86.5404 15.7832 86.727 15.7809C86.966 15.8095 87.2081 15.7664 87.4225 15.657C87.6369 15.5477 87.8139 15.377 87.9311 15.1668L88.8946 15.1668ZM85.3779 13.5343H87.9355C87.9481 13.3643 87.9251 13.1936 87.8678 13.0331C87.8106 12.8726 87.7204 12.7259 87.6031 12.6023C87.4857 12.4787 87.3439 12.381 87.1866 12.3155C87.0293 12.25 86.86 12.2182 86.6896 12.222C86.5167 12.2196 86.345 12.2519 86.1847 12.3171C86.0245 12.3822 85.8789 12.4788 85.7566 12.6011C85.6344 12.7234 85.5378 12.8691 85.4728 13.0293C85.4077 13.1896 85.3755 13.3613 85.3779 13.5343H85.3779Z" fill="#282739"/>
<path d="M93.1332 11.4688H95.4172C96.4082 11.4688 96.9894 11.9708 96.9894 12.7569C96.9909 13.0063 96.9067 13.2487 96.7509 13.4435C96.5951 13.6383 96.3772 13.7736 96.1335 13.8269V13.906C96.4294 13.9247 96.7067 14.0563 96.9083 14.2737C97.1099 14.491 97.2203 14.7775 97.2168 15.0739C97.2168 15.9577 96.5521 16.5345 95.4403 16.5345H93.1332V11.4688ZM94.1241 12.2362V13.5479H95.1151C95.7193 13.5479 96.0083 13.3155 96.0083 12.8871C96.0083 12.4921 95.7567 12.2361 95.2261 12.2361L94.1241 12.2362ZM94.1241 14.2829V15.7672H95.3096C95.9007 15.7672 96.2171 15.5062 96.2171 15.0272C96.2171 14.5202 95.8589 14.2829 95.1843 14.2829L94.1241 14.2829Z" fill="#282739"/>
</svg>
