<svg width="152" height="45" viewBox="0 0 152 45" fill="none" xmlns="http://www.w3.org/2000/svg">
<path d="M145.746 44.8881H5.82095C2.74259 44.8881 0.223938 42.3694 0.223938 39.291V5.70896C0.223938 2.6306 2.74259 0.111942 5.82095 0.111942H145.746C148.825 0.111942 151.343 2.6306 151.343 5.70896V39.291C151.343 42.3694 148.825 44.8881 145.746 44.8881Z" fill="white"/>
<path d="M119.928 33.694H122.017V19.7002H119.928V33.694ZM138.742 24.741L136.348 30.8081H136.276L133.791 24.741H131.541L135.268 33.2209L133.143 37.9377H135.322L141.065 24.741H138.742ZM126.897 32.1046C126.212 32.1046 125.258 31.7626 125.258 30.9161C125.258 29.836 126.447 29.4219 127.472 29.4219C128.391 29.4219 128.822 29.62 129.381 29.8903C129.218 31.1863 128.102 32.1046 126.897 32.1046ZM127.149 24.4349C125.636 24.4349 124.07 25.1013 123.422 26.5775L125.276 27.3515C125.672 26.5775 126.41 26.3252 127.184 26.3252C128.265 26.3252 129.363 26.9737 129.381 28.1259V28.2697C129.002 28.0537 128.193 27.7297 127.202 27.7297C125.204 27.7297 123.169 28.8277 123.169 30.8802C123.169 32.7526 124.808 33.959 126.644 33.959C128.049 33.959 128.822 33.3289 129.309 32.5909H129.381V33.6709H131.397V28.3056C131.397 25.8215 129.543 24.4349 127.149 24.4349ZM114.24 26.4446H111.269V21.6478H114.24C115.801 21.6478 116.688 22.9407 116.688 24.0461C116.688 25.1306 115.801 26.4446 114.24 26.4446ZM114.186 19.7002H109.181V33.694H111.269V28.3922H114.186C116.501 28.3922 118.777 26.7161 118.777 24.0461C118.777 21.3762 116.501 19.7002 114.186 19.7002ZM86.8938 32.1072C85.4507 32.1072 84.2426 30.899 84.2426 29.2396C84.2426 27.5627 85.4507 26.3362 86.8938 26.3362C88.3184 26.3362 89.4365 27.5627 89.4365 29.2396C89.4365 30.899 88.3184 32.1072 86.8938 32.1072ZM89.2922 25.5246H89.22C88.7513 24.9657 87.8492 24.4607 86.7132 24.4607C84.3327 24.4607 82.1507 26.5526 82.1507 29.2396C82.1507 31.9087 84.3327 33.9826 86.7132 33.9826C87.8492 33.9826 88.7513 33.4775 89.22 32.9008H89.2922V33.586C89.2922 35.4077 88.3184 36.3815 86.7495 36.3815C85.4691 36.3815 84.6755 35.4615 84.3506 34.6862L82.5294 35.4435C83.0524 36.7059 84.4411 38.2569 86.7495 38.2569C89.2021 38.2569 91.276 36.8139 91.276 33.2974V24.7493H89.2922V25.5246ZM92.7186 33.694H94.8105V19.6997H92.7186V33.694ZM97.8945 29.0774C97.8403 27.2378 99.3191 26.3003 100.383 26.3003C101.213 26.3003 101.916 26.7148 102.15 27.3104L97.8945 29.0774ZM104.387 27.4905C103.99 26.4262 102.781 24.4607 100.311 24.4607C97.8582 24.4607 95.8205 26.3904 95.8205 29.2217C95.8205 31.8908 97.8403 33.9826 100.545 33.9826C102.728 33.9826 103.99 32.6481 104.513 31.8728L102.89 30.7905C102.349 31.5842 101.609 32.1072 100.545 32.1072C99.4813 32.1072 98.7241 31.6201 98.2369 30.6646L104.603 28.0314L104.387 27.4905ZM53.6685 25.9216V27.9413H58.5015C58.3573 29.0774 57.9786 29.9069 57.4014 30.484C56.6983 31.1876 55.5982 31.9629 53.6685 31.9629C50.6928 31.9629 48.3666 29.5644 48.3666 26.5888C48.3666 23.6132 50.6928 21.2145 53.6685 21.2145C55.2736 21.2145 56.4455 21.8458 57.3113 22.6574L58.736 21.2328C57.5278 20.0784 55.9226 19.1947 53.6685 19.1947C49.5927 19.1947 46.1663 22.5131 46.1663 26.5888C46.1663 30.6646 49.5927 33.9826 53.6685 33.9826C55.8688 33.9826 57.5278 33.2616 58.8261 31.9087C60.1606 30.5741 60.5756 28.6987 60.5756 27.184C60.5756 26.7148 60.5396 26.2824 60.4671 25.9216H53.6685ZM66.0703 32.1072C64.6273 32.1072 63.3828 30.9169 63.3828 29.2217C63.3828 27.5084 64.6273 26.3362 66.0703 26.3362C67.5127 26.3362 68.7572 27.5084 68.7572 29.2217C68.7572 30.9169 67.5127 32.1072 66.0703 32.1072ZM66.0703 24.4607C63.437 24.4607 61.2909 26.4625 61.2909 29.2217C61.2909 31.9629 63.437 33.9826 66.0703 33.9826C68.703 33.9826 70.8491 31.9629 70.8491 29.2217C70.8491 26.4625 68.703 24.4607 66.0703 24.4607ZM76.4955 32.1072C75.053 32.1072 73.8085 30.9169 73.8085 29.2217C73.8085 27.5084 75.053 26.3362 76.4955 26.3362C77.9381 26.3362 79.1825 27.5084 79.1825 29.2217C79.1825 30.9169 77.9381 32.1072 76.4955 32.1072ZM76.4955 24.4607C73.8623 24.4607 71.7167 26.4625 71.7167 29.2217C71.7167 31.9629 73.8623 33.9826 76.4955 33.9826C79.1283 33.9826 81.2745 31.9629 81.2745 29.2217C81.2745 26.4625 79.1283 24.4607 76.4955 24.4607Z" fill="#282739"/>
<path d="M11.9886 36.3688L11.9054 36.2892C11.5797 35.9446 11.3874 35.4094 11.3874 34.7163V34.8794V10.1227C11.3874 10.1205 11.3874 10.1188 11.3874 10.117C11.3874 10.1192 11.3874 10.1209 11.3874 10.1232V10.2867C11.3874 9.53628 11.6116 8.97098 11.9873 8.63203L25.8565 22.5009L11.9886 36.3688ZM11.3874 10.1157C11.3874 10.054 11.3891 9.99411 11.3922 9.93512C11.3891 9.99367 11.3874 10.054 11.3874 10.1157ZM11.3922 9.93244C11.3922 9.93165 11.3922 9.93076 11.3925 9.92986C11.3922 9.93076 11.3922 9.93165 11.3922 9.93244ZM11.3925 9.9246C11.3925 9.92415 11.3925 9.92371 11.3925 9.92326C11.3925 9.92371 11.3925 9.92415 11.3925 9.9246Z" fill="url(#paint0_linear_22_7)"/>
<path d="M30.4788 27.2893L30.5843 27.2294L36.0614 24.1174C36.5836 23.8205 36.9316 23.4606 37.1053 23.0798C36.9321 23.4606 36.5839 23.821 36.0614 24.1178L30.5843 27.2299L30.4788 27.2893ZM30.4802 27.1253L25.8565 22.5009L30.4797 17.8772L36.0614 21.0482C36.7702 21.451 37.1682 21.97 37.2347 22.5004C37.2347 22.5009 37.2347 22.5017 37.2347 22.5025C37.1682 23.0317 36.7702 23.5512 36.0614 23.9538L30.4802 27.1253Z" fill="url(#paint1_linear_22_7)"/>
<path d="M12.9773 36.897C12.5899 36.897 12.2518 36.7711 11.9882 36.5332L11.9887 36.5328C12.2523 36.7706 12.5908 36.897 12.9782 36.897C13.0118 36.897 13.0459 36.8961 13.0805 36.8944C13.0455 36.8961 13.0109 36.897 12.9773 36.897ZM12.9778 36.733C12.5903 36.7335 12.2523 36.6071 11.9887 36.3692V36.3689L25.8565 22.5009L30.4802 27.1254L14.2318 36.3575C13.7823 36.6124 13.3563 36.733 12.9778 36.733ZM11.9847 36.5302C11.9602 36.5079 11.9362 36.4843 11.9125 36.4598L11.9847 36.5302Z" fill="url(#paint2_linear_22_7)"/>
<path d="M25.8565 22.5008L11.9873 8.63199C12.2509 8.39456 12.5886 8.26863 12.9755 8.26863C13.3551 8.26863 13.7814 8.38975 14.2318 8.64509L30.4797 17.8771L25.8565 22.5008ZM30.5843 17.7727L14.2318 8.48165C13.7814 8.2262 13.3551 8.10509 12.9755 8.10509C12.9737 8.10509 12.9725 8.10509 12.9707 8.10509C12.973 8.10509 12.9746 8.10509 12.9773 8.10509C13.356 8.10509 13.7818 8.22576 14.2318 8.4812L30.5843 17.7727Z" fill="url(#paint3_linear_22_7)"/>
<path d="M13.0805 36.8944C13.4324 36.8742 13.8221 36.7531 14.2318 36.5209L30.4788 27.2893L14.2318 36.5209C13.8224 36.7535 13.4324 36.8742 13.0805 36.8944ZM11.9881 36.5331L11.9847 36.5301C11.9859 36.531 11.9873 36.5322 11.9881 36.5331ZM11.9125 36.4597L11.9054 36.4528V36.4523C11.9081 36.4549 11.9102 36.4575 11.9125 36.4597Z" fill="white"/>
<path d="M30.4788 27.2893L30.5843 27.2294L30.4788 27.2893Z" fill="url(#paint4_linear_22_7)"/>
<path d="M12.9782 36.897C12.5907 36.897 12.2522 36.7706 11.9886 36.5328L11.9881 36.5332C11.9873 36.5323 11.9859 36.5311 11.9847 36.5302L11.9125 36.4598C11.9102 36.4575 11.9081 36.455 11.9054 36.4524L11.9886 36.3692C12.2522 36.6071 12.5903 36.7335 12.9777 36.733C13.3563 36.733 13.7822 36.6124 14.2318 36.3575L30.4801 27.1254L30.5842 27.2295L30.4788 27.2894L14.2318 36.521C13.8221 36.7532 13.4324 36.8743 13.0805 36.8944C13.0459 36.8961 13.0117 36.897 12.9782 36.897Z" fill="url(#paint5_linear_22_7)"/>
<path d="M11.9055 36.4528C11.5797 36.1081 11.3874 35.573 11.3874 34.8799V34.8795C11.3874 35.573 11.5797 36.1077 11.9055 36.4524V36.4528Z" fill="white"/>
<path d="M11.9054 36.4524C11.5797 36.1077 11.3874 35.573 11.3874 34.8795V34.7164C11.3874 35.4094 11.5797 35.9446 11.9054 36.2893L11.9886 36.3689L11.9054 36.4524Z" fill="url(#paint6_linear_22_7)"/>
<path d="M11.9054 36.4524L11.9886 36.3689V36.3692L11.9054 36.4524Z" fill="url(#paint7_linear_22_7)"/>
<path d="M37.1053 23.0798C37.1913 22.8909 37.2347 22.6968 37.2347 22.5026C37.2347 22.5022 37.2347 22.5018 37.2347 22.5018C37.2347 22.6963 37.1913 22.8904 37.1053 23.0798Z" fill="white"/>
<path d="M30.5842 27.2295L30.4801 27.1254L36.0614 23.9539C36.7702 23.5512 37.1681 23.0317 37.2346 22.5026C37.2346 22.6968 37.1913 22.8909 37.1052 23.0798C36.9316 23.4607 36.5836 23.8205 36.0614 24.1174L30.5842 27.2295Z" fill="url(#paint8_linear_22_7)"/>
<path d="M37.2347 22.5008V22.5004C37.2342 21.9148 36.8429 21.3294 36.0614 20.8851L30.5843 17.773H30.5838L30.5843 17.7727L36.0614 20.8846C36.8438 21.3289 37.2355 21.9153 37.2347 22.5008Z" fill="#282739"/>
<path d="M37.2346 22.5004C37.1681 21.97 36.7702 21.451 36.0614 21.0482L30.4797 17.8772L30.5838 17.7731H30.5843L36.0614 20.8851C36.8428 21.3294 37.2342 21.9148 37.2346 22.5004Z" fill="url(#paint9_linear_22_7)"/>
<path d="M11.3874 10.117C11.3874 10.1166 11.3874 10.1161 11.3874 10.1157C11.3874 10.1161 11.3874 10.1166 11.3874 10.117ZM11.3922 9.93511C11.3922 9.93422 11.3922 9.93332 11.3922 9.93243C11.3922 9.93332 11.3922 9.93422 11.3922 9.93511ZM11.3925 9.92985C11.3925 9.92806 11.3925 9.92638 11.3925 9.92459C11.3925 9.92638 11.3925 9.92806 11.3925 9.92985ZM11.3925 9.92325C11.4574 8.77329 12.0827 8.10903 12.9672 8.10512C12.5837 8.10735 12.2497 8.23329 11.9882 8.46892V8.46847L11.985 8.47161C11.9575 8.49646 11.9313 8.52276 11.9054 8.54985C11.6116 8.86071 11.4262 9.32638 11.3925 9.92325Z" fill="#282739"/>
<path d="M11.3874 10.2867V10.1232C11.3874 10.1209 11.3874 10.1191 11.3874 10.117C11.3874 10.1166 11.3874 10.1161 11.3874 10.1157C11.3874 10.054 11.3891 9.99366 11.3922 9.93512C11.3922 9.93422 11.3922 9.93333 11.3922 9.93243C11.3922 9.93165 11.3922 9.93075 11.3925 9.92986C11.3925 9.92806 11.3925 9.92639 11.3925 9.92459C11.3925 9.92415 11.3925 9.9237 11.3925 9.92325C11.4262 9.32639 11.6116 8.86071 11.9055 8.54985L11.9873 8.63202C11.6116 8.97097 11.3874 9.53627 11.3874 10.2867ZM11.985 8.47161L11.9882 8.46847C11.9873 8.46982 11.9859 8.47071 11.985 8.47161Z" fill="url(#paint10_linear_22_7)"/>
<path d="M30.4797 17.8772L14.2318 8.64512C13.7813 8.38979 13.3551 8.26867 12.9755 8.26867C12.5885 8.26867 12.2509 8.3946 11.9873 8.63202L11.9054 8.54986C11.9313 8.52277 11.9575 8.49646 11.985 8.47161C11.9859 8.47072 11.9873 8.46982 11.9881 8.46893C12.2496 8.23329 12.5837 8.10736 12.9672 8.10512C12.9681 8.10512 12.9693 8.10512 12.9707 8.10512C12.9724 8.10512 12.9737 8.10512 12.9755 8.10512C13.3551 8.10512 13.7813 8.22624 14.2318 8.48169L30.5842 17.7727L30.5838 17.7731L30.4797 17.8772Z" fill="url(#paint11_linear_22_7)"/>
<path d="M48.914 11.2688C48.9271 12.3313 48.7142 13.1883 48.2769 13.839H51.6722V8.77282H48.914V11.2688ZM47.3661 16.0896H46.541V13.839H47.1978C47.7793 13.3379 48.0635 12.4817 48.0518 11.2688V7.94771H52.5359V13.839H53.2859V16.0896H52.4603V14.6641H47.3661V16.0896Z" fill="#282739"/>
<path d="M48.914 11.2688L48.8021 11.2701L48.803 11.3606C48.8025 12.3659 48.5926 13.1688 48.1837 13.7765L48.0666 13.951H51.7842V8.66092H48.8021V11.2697V11.2701L48.914 11.2688H49.026V8.8848H51.5603V13.7271H48.2768V13.8391L48.3696 13.9012C48.8099 13.2461 49.0269 12.396 49.0269 11.3606L49.026 11.2674L48.914 11.2688H49.026H48.914ZM47.3661 16.0896V15.9777H46.6529V13.951H47.1977H47.2393L47.2707 13.9239C47.8759 13.4018 48.1641 12.532 48.1641 11.3422L48.1637 11.2679V11.2688V8.05969H52.4239V13.951H53.1739V15.9777H52.5722V14.6642V14.5522H47.2542V16.0896H47.3661V15.9777V16.0896H47.478V14.7761H52.3483V16.0896V16.2016H53.2858H53.3978V13.7271H52.6478V7.83581H47.9398V11.2692V11.2697L47.9402 11.3422C47.9398 12.5006 47.659 13.2951 47.1246 13.7538L47.1977 13.8391V13.7271H46.541H46.429V16.2016H47.3661H47.478V16.0896H47.3661Z" fill="#282739"/>
<path d="M55.7289 13.2339C56.2264 13.7371 56.8343 13.9886 57.5536 13.9886C58.2728 13.9886 58.8815 13.7371 59.3778 13.2339C59.8755 12.7306 60.1246 12.0873 60.1246 11.3059C60.1246 10.5246 59.8755 9.88124 59.3778 9.37796C58.8815 8.87468 58.2728 8.62326 57.5536 8.62326C56.8343 8.62326 56.2264 8.87468 55.7289 9.37796C55.2325 9.88124 54.9833 10.5246 54.9833 11.3059C54.9833 12.0873 55.2325 12.7306 55.7289 13.2339ZM60.0163 13.7961C59.356 14.4752 58.5352 14.8141 57.5536 14.8141C56.5719 14.8141 55.7507 14.4752 55.0917 13.7961C54.4315 13.1179 54.1023 12.2876 54.1023 11.3059C54.1023 10.3242 54.4315 9.49382 55.0917 8.81568C55.7507 8.13654 56.5719 7.79725 57.5536 7.79725C58.5295 7.79725 59.3486 8.13833 60.0118 8.82005C60.6743 9.50177 61.0057 10.3303 61.0057 11.3059C61.0057 12.2876 60.6756 13.1179 60.0163 13.7961Z" fill="#282739"/>
<path d="M55.7288 13.234L55.6492 13.3127C56.1647 13.8361 56.8079 14.102 57.5536 14.1006C58.2986 14.102 58.9432 13.8361 59.4573 13.3127C59.9764 12.7888 60.2374 12.111 60.2365 11.306C60.2374 10.5011 59.9764 9.82327 59.4573 9.29939C58.9432 8.77596 58.2986 8.5101 57.5536 8.51145C56.8079 8.5101 56.1647 8.77596 55.6492 9.29939C55.1315 9.82327 54.8705 10.5011 54.8714 11.306C54.8705 12.111 55.1315 12.7888 55.6492 13.3127L55.7288 13.234L55.8089 13.1553C55.3339 12.672 55.0965 12.0642 55.0952 11.306C55.0965 10.5479 55.3339 9.94003 55.8089 9.45678H55.8084C56.2876 8.97365 56.86 8.73667 57.5536 8.73533C58.2466 8.73667 58.8203 8.97365 59.2982 9.45678L59.2999 9.45857L59.2982 9.45678C59.7743 9.94003 60.0114 10.5479 60.0127 11.306C60.0114 12.0642 59.7743 12.672 59.2982 13.1553C58.8203 13.6384 58.2466 13.8754 57.5536 13.8767C56.86 13.8754 56.2876 13.6384 55.8084 13.1553L55.7288 13.234ZM60.0163 13.7963L59.9362 13.7185C59.2947 14.3761 58.5094 14.701 57.5536 14.7023C56.5973 14.701 55.8123 14.3761 55.1717 13.7185C54.5315 13.0586 54.2154 12.2628 54.2142 11.306C54.2154 10.3493 54.5315 9.5535 55.1717 8.89361C55.8123 8.23596 56.5973 7.91066 57.5536 7.90932C58.5037 7.91066 59.2868 8.2373 59.9318 8.89842C60.5746 9.56133 60.8925 10.3559 60.8938 11.306C60.8925 12.2628 60.5755 13.0586 59.9362 13.7185L60.0163 13.7963L60.0966 13.8741C60.7753 13.1771 61.1185 12.3126 61.1176 11.306C61.1185 10.3052 60.7744 9.44245 60.0923 8.74238C59.4101 8.03962 58.5558 7.68421 57.5536 7.68544C56.5461 7.68421 55.689 8.03794 55.0113 8.73801V8.73756C54.3313 9.43495 53.9894 10.2995 53.9903 11.306C53.9894 12.3126 54.3313 13.1771 55.0113 13.8745V13.8741C55.689 14.5741 56.5461 14.9271 57.5536 14.9262C58.5606 14.9271 59.4176 14.5741 60.0966 13.8741L60.0163 13.7963Z" fill="#282739"/>
<path d="M65.3501 14.8141C64.3619 14.8141 63.5333 14.4796 62.8642 13.8101C62.1939 13.1412 61.8607 12.3063 61.8607 11.3059C61.8607 10.3054 62.1939 9.47065 62.8642 8.80169C63.5333 8.13218 64.3619 7.79725 65.3501 7.79725C66.3623 7.79725 67.1853 8.16329 67.8171 8.89482L67.2159 9.4768C66.7603 8.90747 66.1371 8.62326 65.3501 8.62326C64.6176 8.62326 63.9997 8.87031 63.4969 9.36442C62.9932 9.85852 62.7417 10.5058 62.7417 11.3059C62.7417 12.1061 62.9932 12.7537 63.4969 13.2474C63.9997 13.7415 64.6176 13.9886 65.3501 13.9886C66.1568 13.9886 66.8442 13.6636 67.4139 13.0134L68.0139 13.6133C67.707 13.9824 67.323 14.2749 66.8595 14.4901C66.3973 14.7061 65.8932 14.8141 65.3501 14.8141Z" fill="#282739"/>
<path d="M65.35 14.8142V14.7023C64.3868 14.701 63.5931 14.3796 62.9433 13.7311C62.294 13.0817 61.9735 12.2816 61.9726 11.306C61.9735 10.3305 62.294 9.53033 62.9433 8.88096C63.5931 8.23204 64.3868 7.91066 65.35 7.90932C66.3357 7.91111 67.1192 8.26003 67.7322 8.96794L67.8171 8.89495L67.7393 8.81447L67.138 9.39689L67.2158 9.47693L67.3033 9.40697C66.8284 8.81145 66.1634 8.50977 65.35 8.51145C64.5922 8.51055 63.9403 8.77081 63.4186 9.28451C62.8917 9.8001 62.6284 10.4831 62.6298 11.306C62.6284 12.129 62.8917 12.8129 63.4186 13.3276C63.9403 13.8413 64.5922 14.1015 65.35 14.1006C66.1873 14.102 66.9128 13.7582 67.4978 13.0875L67.4139 13.0136L67.3347 13.0927L67.9347 13.6926L68.0139 13.6135L67.9277 13.5423C67.6313 13.8981 67.2622 14.1798 66.8122 14.3888C66.3649 14.5978 65.8787 14.7019 65.35 14.7023V14.8142V14.9262C65.9079 14.9262 66.4292 14.8151 66.9067 14.5917C67.3842 14.3704 67.7822 14.0674 68.1 13.6852L68.1651 13.607L67.4931 12.9344L67.4083 12.8496L67.3296 12.9397C66.7759 13.5698 66.1262 13.8754 65.35 13.8767C64.6426 13.8754 64.0597 13.6419 63.5755 13.1675H63.5752C63.0942 12.6952 62.8545 12.0835 62.8536 11.306C62.8545 10.5286 63.0942 9.91775 63.5752 9.44458H63.5755C64.0597 8.97018 64.6426 8.73667 65.35 8.73533C66.1104 8.73712 66.6915 9.00387 67.1284 9.54689L67.2053 9.64316L67.8949 8.97544L67.971 8.9019L67.9019 8.82197C67.2517 8.06637 66.3889 7.68421 65.35 7.68544C64.3364 7.68454 63.4728 8.03313 62.785 8.72268C62.0937 9.41089 61.7473 10.2811 61.7487 11.306C61.7473 12.331 62.0937 13.2012 62.785 13.8898C63.4728 14.5789 64.3364 14.9271 65.35 14.9262V14.8142Z" fill="#282739"/>
<path d="M71.5046 14.6642H70.641V8.77289H68.7652V7.94778H73.3804V8.77289H71.5046V14.6642Z" fill="#282739"/>
<path d="M71.5045 14.6642V14.5523H70.7529V8.66095H68.877V8.05972H73.2685V8.66095H71.3926V14.6642H71.5045V14.5523V14.6642H71.6164V8.88483H73.4923V7.94778V7.83584H68.6532V8.77289V8.88483H70.5291V14.7761H71.5045H71.6164V14.6642H71.5045Z" fill="#282739"/>
<path d="M75.2549 12.0371H77.4868L76.3892 9.00774H76.3521L75.2549 12.0371ZM73.3507 14.6642L75.8838 7.94778H76.8585L79.3911 14.6642H78.4348L77.7871 12.8438H74.9642L74.3075 14.6642H73.3507Z" fill="#282739"/>
<path d="M75.255 12.0371V12.149H77.6465L76.4675 8.8958H76.3521H76.2734L75.0954 12.149H75.255V12.0371L75.3604 12.0756L76.4575 9.0458L76.3521 9.00774V9.11968H76.3892V9.00774L76.2839 9.0458L77.3272 11.9251H75.255V12.0371L75.3604 12.0756L75.255 12.0371ZM73.3507 14.6642L73.4556 14.7036L75.9612 8.05972H76.7806L79.2293 14.5523H78.5135L77.8663 12.7319H74.8856L74.2287 14.5523H73.3507V14.6642L73.4556 14.7036L73.3507 14.6642V14.7761H74.3075H74.3862L75.0429 12.9558H77.7085L78.3557 14.7761H79.3912H79.5529L76.9359 7.83584H75.8838H75.8064L73.1889 14.7761H73.3507V14.6642Z" fill="#282739"/>
<path d="M80.3671 14.6642V7.94778H85.2264V14.6642H84.3629V8.77289H81.2298V14.6642H80.3671Z" fill="#282739"/>
<path d="M80.367 14.6642H80.479V8.05972H85.1144V14.5523H84.4748V8.66095H81.1178V14.5523H80.367V14.6642H80.479H80.367V14.7761H81.2298H81.3417V8.88483H84.2509V14.7761H85.2264H85.3383V7.83584H80.2551V14.7761H80.367V14.6642Z" fill="#282739"/>
<path d="M86.7656 14.6642V7.94778H87.6284V10.8272H90.9866V7.94778H91.8497V14.6642H90.9866V11.634H87.6284V14.6642H86.7656Z" fill="#282739"/>
<path d="M86.7655 14.6642H86.8775V8.05972H87.5164L87.516 10.9392H91.0985V8.05972H91.7377V14.5523H91.0981L91.0985 11.522H87.516V14.5523H86.7655V14.6642H86.8775H86.7655V14.7761H87.6284H87.7403V11.7459H90.8742V14.7761H91.8496H91.9616V7.83584H90.9866H90.8742V10.7153H87.7399L87.7403 7.83584H86.7655H86.6536V14.7761H86.7655V14.6642Z" fill="#282739"/>
<path d="M94.5926 13.2339C95.0903 13.7371 95.6976 13.9886 96.4169 13.9886C97.1367 13.9886 97.7453 13.7371 98.2416 13.2339C98.7388 12.7306 98.9885 12.0873 98.9885 11.3059C98.9885 10.5246 98.7388 9.88124 98.2416 9.37796C97.7453 8.87468 97.1367 8.62326 96.4169 8.62326C95.6976 8.62326 95.0903 8.87468 94.5926 9.37796C94.0964 9.88124 93.8471 10.5246 93.8471 11.3059C93.8471 12.0873 94.0964 12.7306 94.5926 13.2339ZM98.88 13.7961C98.2198 14.4752 97.3991 14.8141 96.4169 14.8141C95.4357 14.8141 94.6145 14.4752 93.9556 13.7961C93.2953 13.1179 92.966 12.2876 92.966 11.3059C92.966 10.3242 93.2953 9.49382 93.9556 8.81568C94.6145 8.13654 95.4357 7.79725 96.4169 7.79725C97.3934 7.79725 98.2119 8.13833 98.8757 8.82005C99.5381 9.50177 99.8696 10.3303 99.8696 11.3059C99.8696 12.2876 99.5395 13.1179 98.88 13.7961Z" fill="#282739"/>
<path d="M94.5927 13.234L94.5131 13.3127C95.0287 13.8361 95.6719 14.102 96.417 14.1006C97.1625 14.102 97.8066 13.8361 98.3213 13.3127C98.8404 12.7888 99.1014 12.111 99.1005 11.306C99.1014 10.5011 98.8404 9.82327 98.3213 9.29939C97.8066 8.77596 97.1625 8.5101 96.417 8.51145C95.6719 8.5101 95.0287 8.77596 94.5131 9.29939C93.9954 9.82327 93.7343 10.5011 93.7352 11.306C93.7343 12.111 93.9954 12.7888 94.5131 13.3127L94.5927 13.234L94.6723 13.1553C94.1974 12.672 93.96 12.0642 93.9591 11.306C93.96 10.5479 94.1974 9.94003 94.6723 9.45678C95.1516 8.97365 95.7239 8.73667 96.417 8.73533C97.1105 8.73667 97.6842 8.97365 98.1621 9.45678L98.1651 9.46036L98.1621 9.45678C98.6379 9.94003 98.8753 10.5479 98.8766 11.306C98.8753 12.0642 98.6379 12.672 98.1621 13.1553C97.6842 13.6384 97.1105 13.8754 96.417 13.8767C95.7239 13.8754 95.1516 13.6384 94.6723 13.1553L94.5927 13.234ZM98.8801 13.7963L98.7996 13.7185C98.1582 14.3761 97.3733 14.701 96.417 14.7023C95.4611 14.701 94.6762 14.3761 94.0357 13.7185L94.0325 13.715L94.0357 13.7185C93.395 13.0586 93.0789 12.2628 93.078 11.306C93.0789 10.3493 93.395 9.5535 94.0357 8.89361C94.6762 8.23596 95.4611 7.91066 96.417 7.90932C97.3672 7.91066 98.1504 8.2373 98.7957 8.89842C99.4385 9.56133 99.7564 10.3559 99.7577 11.306C99.7564 12.2628 99.4394 13.0586 98.7996 13.7185L98.8801 13.7963L98.9606 13.8741C99.6392 13.1771 99.9825 12.3126 99.9816 11.306C99.9825 10.3052 99.6379 9.44245 98.9562 8.74238C98.2741 8.03962 97.4192 7.68421 96.417 7.68544C95.4099 7.68421 94.5529 8.03794 93.8751 8.73801V8.73756C93.1952 9.43495 92.8532 10.2995 92.8541 11.306C92.8532 12.3126 93.1952 13.1771 93.8751 13.8745V13.8741C94.5529 14.5741 95.4099 14.9271 96.417 14.9262C97.4244 14.9271 98.2814 14.5741 98.9606 13.8741L98.8801 13.7963Z" fill="#282739"/>
<path d="M103.398 14.6642V7.94778H104.26V10.8272H107.618V7.94778H108.483V14.6642H107.618V11.634H104.26V14.6642H103.398Z" fill="#282739"/>
<path d="M103.398 14.6642H103.51V8.05972H104.148V10.9392H107.73V8.05972H108.371V14.5523H107.73V11.522H104.148V14.5523H103.398V14.6642H103.51H103.398V14.7761H104.26H104.372V11.7459H107.506V14.7761H108.483H108.594V7.83584H107.618H107.506V10.7153H104.372V7.83584H103.398H103.286V14.7761H103.398V14.6642Z" fill="#282739"/>
<path d="M111.362 12.0371H113.594L112.497 9.00774H112.46L111.362 12.0371ZM109.458 14.6642L111.991 7.94778H112.966L115.499 14.6642H114.542L113.895 12.8438H111.071L110.415 14.6642H109.458Z" fill="#282739"/>
<path d="M111.362 12.0371V12.149H113.754L112.575 8.8958H112.46H112.381L111.203 12.149H111.362V12.0371L111.467 12.0756L112.565 9.0458L112.46 9.00774V9.11968H112.497V9.00774L112.391 9.0458L113.435 11.9251H111.362V12.0371L111.467 12.0756L111.362 12.0371ZM109.458 14.6642L109.563 14.7036L112.068 8.05972H112.888L115.337 14.5523H114.621L113.973 12.7319H110.992L110.335 14.5523H109.458V14.6642L109.563 14.7036L109.458 14.6642V14.7761H110.415H110.493L111.15 12.9558H113.815L114.462 14.7761H115.499H115.66L113.043 7.83584H111.991H111.913L109.295 14.7761H109.458V14.6642Z" fill="#282739"/>
<defs>
<linearGradient id="paint0_linear_22_7" x1="24.6267" y1="9.86158" x2="5.84031" y2="28.648" gradientUnits="userSpaceOnUse">
<stop stop-color="#00A0FF"/>
<stop offset="0.00657445" stop-color="#00A1FF"/>
<stop offset="0.2601" stop-color="#00BEFF"/>
<stop offset="0.5122" stop-color="#00D2FF"/>
<stop offset="0.7604" stop-color="#00DFFF"/>
<stop offset="1" stop-color="#00E3FF"/>
</linearGradient>
<linearGradient id="paint1_linear_22_7" x1="38.0983" y1="22.5015" x2="11.0121" y2="22.5015" gradientUnits="userSpaceOnUse">
<stop stop-color="#FFE000"/>
<stop offset="0.4087" stop-color="#FFBD00"/>
<stop offset="0.7754" stop-color="#FFA500"/>
<stop offset="1" stop-color="#FF9C00"/>
</linearGradient>
<linearGradient id="paint2_linear_22_7" x1="28.0154" y1="25.0703" x2="2.53966" y2="50.546" gradientUnits="userSpaceOnUse">
<stop stop-color="#FF3A44"/>
<stop offset="1" stop-color="#C31162"/>
</linearGradient>
<linearGradient id="paint3_linear_22_7" x1="8.39259" y1="0.309117" x2="19.7685" y2="11.685" gradientUnits="userSpaceOnUse">
<stop stop-color="#32A071"/>
<stop offset="0.0685" stop-color="#2DA771"/>
<stop offset="0.4762" stop-color="#15CF74"/>
<stop offset="0.8009" stop-color="#06E775"/>
<stop offset="1" stop-color="#00F076"/>
</linearGradient>
<linearGradient id="paint4_linear_22_7" x1="38.0982" y1="22.5016" x2="11.0122" y2="22.5016" gradientUnits="userSpaceOnUse">
<stop stop-color="#CCB300"/>
<stop offset="0.4087" stop-color="#CC9700"/>
<stop offset="0.7754" stop-color="#CC8400"/>
<stop offset="1" stop-color="#CC7D00"/>
</linearGradient>
<linearGradient id="paint5_linear_22_7" x1="28.0153" y1="25.0703" x2="2.5396" y2="50.546" gradientUnits="userSpaceOnUse">
<stop stop-color="#CC2E36"/>
<stop offset="1" stop-color="#9C0E4E"/>
</linearGradient>
<linearGradient id="paint6_linear_22_7" x1="24.6267" y1="9.86163" x2="5.84033" y2="28.6481" gradientUnits="userSpaceOnUse">
<stop stop-color="#008DE0"/>
<stop offset="0.00657445" stop-color="#008DE0"/>
<stop offset="0.2601" stop-color="#00A7E0"/>
<stop offset="0.5122" stop-color="#00B8E0"/>
<stop offset="0.7604" stop-color="#00C4E0"/>
<stop offset="1" stop-color="#00C7E0"/>
</linearGradient>
<linearGradient id="paint7_linear_22_7" x1="28.0158" y1="25.0702" x2="2.53995" y2="50.5467" gradientUnits="userSpaceOnUse">
<stop stop-color="#E0333C"/>
<stop offset="1" stop-color="#AB0F56"/>
</linearGradient>
<linearGradient id="paint8_linear_22_7" x1="38.0982" y1="22.5015" x2="11.012" y2="22.5015" gradientUnits="userSpaceOnUse">
<stop stop-color="#E0C500"/>
<stop offset="0.4087" stop-color="#E0A600"/>
<stop offset="0.7754" stop-color="#E09100"/>
<stop offset="1" stop-color="#E08900"/>
</linearGradient>
<linearGradient id="paint9_linear_22_7" x1="38.0983" y1="22.5015" x2="11.0121" y2="22.5015" gradientUnits="userSpaceOnUse">
<stop stop-color="#FFE840"/>
<stop offset="0.4087" stop-color="#FFCE40"/>
<stop offset="0.7754" stop-color="#FFBC40"/>
<stop offset="1" stop-color="#FFB540"/>
</linearGradient>
<linearGradient id="paint10_linear_22_7" x1="24.6267" y1="9.86157" x2="5.84034" y2="28.648" gradientUnits="userSpaceOnUse">
<stop stop-color="#40B8FF"/>
<stop offset="0.00657445" stop-color="#40B9FF"/>
<stop offset="0.2601" stop-color="#40CEFF"/>
<stop offset="0.5122" stop-color="#40DDFF"/>
<stop offset="0.7604" stop-color="#40E7FF"/>
<stop offset="1" stop-color="#40EAFF"/>
</linearGradient>
<linearGradient id="paint11_linear_22_7" x1="8.39252" y1="0.309149" x2="19.7685" y2="11.6851" gradientUnits="userSpaceOnUse">
<stop stop-color="#65B895"/>
<stop offset="0.0685" stop-color="#62BD95"/>
<stop offset="0.4762" stop-color="#50DB97"/>
<stop offset="0.8009" stop-color="#44ED98"/>
<stop offset="1" stop-color="#40F498"/>
</linearGradient>
</defs>
</svg>
