<svg width="70" height="10" viewBox="0 0 70 10" fill="none" xmlns="http://www.w3.org/2000/svg">
<path d="M2.91404 4.26878C2.92714 5.33132 2.71423 6.18833 2.27687 6.83904H5.67224V1.77285H2.91404V4.26878ZM1.36613 9.0896H0.541016V6.83904H1.19777C1.7793 6.33788 2.06352 5.48176 2.05176 4.26878V0.947734H6.53586V6.83904H7.28586V9.0896H6.46031V7.66415H1.36613V9.0896" fill="#282739"/>
<path d="M9.72884 6.23382C10.2264 6.73711 10.8343 6.98853 11.5536 6.98853C12.2728 6.98853 12.8815 6.73711 13.3778 6.23382C13.8754 5.73054 14.1246 5.08722 14.1246 4.30588C14.1246 3.52453 13.8754 2.88121 13.3778 2.37793C12.8815 1.87465 12.2728 1.62323 11.5536 1.62323C10.8343 1.62323 10.2264 1.87465 9.72884 2.37793C9.2325 2.88121 8.98332 3.52453 8.98332 4.30588C8.98332 5.08722 9.2325 5.73054 9.72884 6.23382ZM14.0163 6.7961C13.3559 7.47513 12.5352 7.81409 11.5536 7.81409C10.5719 7.81409 9.75066 7.47513 9.09167 6.7961C8.43145 6.11786 8.10223 5.28759 8.10223 4.30588C8.10223 3.32416 8.43145 2.49379 9.09167 1.81565C9.75066 1.13651 10.5719 0.79722 11.5536 0.79722C12.5295 0.79722 13.3485 1.1383 14.0118 1.82002C14.6742 2.50173 15.0057 3.33032 15.0057 4.30588C15.0057 5.28759 14.6756 6.11786 14.0163 6.7961Z" fill="#282739"/>
<path d="M9.72884 6.23394L9.64925 6.31264C10.1647 6.83607 10.8079 7.10193 11.5536 7.10059C12.2987 7.10193 12.9432 6.83607 13.4573 6.31264C13.9764 5.78876 14.2375 5.11096 14.2366 4.306C14.2375 3.50103 13.9764 2.82324 13.4573 2.29936C12.9432 1.77592 12.2987 1.51006 11.5536 1.51141C10.8079 1.51006 10.1647 1.77592 9.64925 2.29936C9.13153 2.82324 8.87049 3.50103 8.87138 4.306C8.87049 5.11096 9.13153 5.78876 9.64925 6.31264L9.72884 6.23394L9.80888 6.15525C9.33392 5.672 9.09649 5.06417 9.09526 4.306C9.09649 3.54783 9.33392 2.93999 9.80888 2.45674H9.80843C10.2876 1.97361 10.86 1.73663 11.5536 1.73529C12.2466 1.73663 12.8203 1.97361 13.2982 2.45674L13.3 2.45853L13.2982 2.45674C13.7744 2.93999 14.0115 3.54783 14.0127 4.306C14.0115 5.06417 13.7744 5.672 13.2982 6.15525C12.8203 6.63838 12.2466 6.87536 11.5536 6.87671C10.86 6.87536 10.2876 6.63838 9.80843 6.15525L9.72884 6.23394ZM14.0163 6.79622L13.9362 6.71842C13.2947 7.37607 12.5094 7.70092 11.5536 7.70227C10.5973 7.70092 9.81235 7.37607 9.17172 6.71842C8.53153 6.05853 8.21541 5.26275 8.21418 4.306C8.21541 3.34924 8.53153 2.55346 9.17172 1.89357C9.81235 1.23592 10.5973 0.910624 11.5536 0.909281C12.5037 0.910624 13.2869 1.23727 13.9319 1.89839C14.5746 2.5613 14.8925 3.35585 14.8938 4.306C14.8925 5.26275 14.5755 6.05853 13.9362 6.71842L14.0163 6.79622L14.0966 6.87402C14.7753 6.17708 15.1185 5.31256 15.1177 4.306C15.1185 3.30514 14.7744 2.44241 14.0923 1.74234C13.4101 1.03958 12.5558 0.684169 11.5536 0.6854C10.5461 0.684169 9.68899 1.0379 9.01131 1.73797V1.73753C8.33127 2.43491 7.9894 3.29943 7.9903 4.306C7.9894 5.31256 8.33127 6.17708 9.01131 6.87447V6.87402C9.68899 7.57409 10.5461 7.92704 11.5536 7.92615C12.5606 7.92704 13.4176 7.57409 14.0966 6.87402L14.0163 6.79622Z" fill="#282739"/>
<path d="M19.3501 7.81409C18.3619 7.81409 17.5333 7.47961 16.8642 6.81009C16.1939 6.14114 15.8607 5.30629 15.8607 4.30588C15.8607 3.30535 16.1939 2.47062 16.8642 1.80166C17.5333 1.13214 18.3619 0.79722 19.3501 0.79722C20.3623 0.79722 21.1853 1.16326 21.8171 1.89479L21.2159 2.47677C20.7603 1.90744 20.1371 1.62323 19.3501 1.62323C18.6176 1.62323 17.9997 1.87028 17.4969 2.36438C16.9932 2.85849 16.7417 3.50573 16.7417 4.30588C16.7417 5.10603 16.9932 5.75371 17.4969 6.24737C17.9997 6.74147 18.6176 6.98853 19.3501 6.98853C20.1568 6.98853 20.8442 6.66356 21.4139 6.01341L22.0139 6.6133C21.707 6.98237 21.323 7.27487 20.8595 7.49002C20.3973 7.70607 19.8932 7.81409 19.3501 7.81409" fill="#282739"/>
<path d="M19.35 7.81421V7.70227C18.3868 7.70092 17.5931 7.37954 16.9433 6.73107C16.2939 6.08171 15.9734 5.28156 15.9725 4.306C15.9734 3.33044 16.2939 2.53029 16.9433 1.88092C17.5931 1.23201 18.3868 0.910626 19.35 0.909282C20.3356 0.911073 21.1192 1.25999 21.7322 1.9679L21.8171 1.89492L21.7393 1.81443L21.138 2.39686L21.2158 2.47689L21.3033 2.40693C20.8284 1.81141 20.1634 1.50973 19.35 1.51141C18.5922 1.51051 17.9402 1.77078 17.4186 2.28447C16.8917 2.80007 16.6284 3.48301 16.6297 4.306C16.6284 5.12898 16.8917 5.81282 17.4186 6.32753C17.9402 6.84122 18.5922 7.10148 19.35 7.10059C20.1873 7.10193 20.9128 6.75816 21.4978 6.08742L21.4138 6.01353L21.3347 6.09268L21.9347 6.69257L22.0139 6.61342L21.9277 6.54223C21.6312 6.89809 21.2622 7.17973 20.8122 7.38872C20.3649 7.59771 19.8787 7.70182 19.35 7.70227V7.81421V7.92615C19.9079 7.92615 20.4292 7.8151 20.9066 7.59167C21.3842 7.37036 21.7821 7.06734 22.0999 6.68518L22.1651 6.60693L21.4931 5.93439L21.4082 5.84954L21.3296 5.93965C20.7759 6.56977 20.1262 6.87536 19.35 6.87671C18.6425 6.87536 18.0597 6.64186 17.5755 6.16745H17.5752C17.0942 5.69518 16.8545 5.08342 16.8536 4.306C16.8545 3.52857 17.0942 2.91771 17.5752 2.44454H17.5755C18.0597 1.97014 18.6425 1.73663 19.35 1.73529C20.1104 1.73708 20.6915 2.00383 21.1284 2.54686L21.2053 2.64312L21.8949 1.9754L21.971 1.90186L21.9019 1.82193C21.2516 1.06633 20.3889 0.68417 19.35 0.685402C18.3364 0.684506 17.4728 1.03309 16.785 1.72264C16.0937 2.41085 15.7473 3.28107 15.7487 4.306C15.7473 5.33092 16.0937 6.20115 16.785 6.8898C17.4728 7.57891 18.3364 7.92704 19.35 7.92615V7.81421" fill="#282739"/>
<path d="M25.5045 7.66418H24.641V1.77288H22.7651V0.947764H27.3804V1.77288H25.5045V7.66418Z" fill="#282739"/>
<path d="M25.5045 7.66418V7.55224H24.753V1.66094H22.8771V1.05971H27.2685V1.66094H25.3926V7.66418H25.5045V7.55224V7.66418H25.6165V1.88482H27.4924V0.947765V0.835825H22.6532V1.77288V1.88482H24.5291V7.77612H25.5045H25.6165V7.66418H25.5045" fill="#282739"/>
<path d="M29.2549 5.03706H31.4868L30.3892 2.00773H30.352L29.2549 5.03706ZM27.3507 7.66418L29.8838 0.947764H30.8585L33.3911 7.66418H32.4348L31.7871 5.84381H28.9642L28.3075 7.66418H27.3507Z" fill="#282739"/>
<path d="M29.255 5.03706V5.149H31.6465L30.4675 1.89579H30.3521H30.2734L29.0955 5.149H29.255V5.03706L29.3604 5.07556L30.4576 2.04579L30.3521 2.00773V2.11967H30.3893V2.00773L30.2839 2.04579L31.3272 4.92512H29.255V5.03706L29.3604 5.07556L29.255 5.03706ZM27.3508 7.66418L27.4557 7.70358L29.9612 1.05971H30.7806L33.2293 7.55224H32.5136L31.8663 5.73187H28.8856L28.2287 7.55224H27.3508V7.66418L27.4557 7.70358L27.3508 7.66418V7.77612H28.3075H28.3862L29.043 5.95575H31.7085L32.3557 7.77612H33.3912H33.5529L30.9359 0.835825H29.8839H29.8064L27.1889 7.77612H27.3508V7.66418" fill="#282739"/>
<path d="M34.3671 7.66418V0.947764H39.2264V7.66418H38.3629V1.77288H35.2298V7.66418H34.3671Z" fill="#282739"/>
<path d="M34.3671 7.66418H34.479V1.05971H39.1144V7.55224H38.4748V1.66094H35.1178V7.55224H34.3671V7.66418H34.479H34.3671V7.77612H35.2298H35.3417V1.88482H38.2509V7.77612H39.2264H39.3383V0.835825H34.2551V7.77612H34.3671V7.66418" fill="#282739"/>
<path d="M40.7656 7.66418V0.947764H41.6284V3.8272H44.9866V0.947764H45.8497V7.66418H44.9866V4.63396H41.6284V7.66418H40.7656Z" fill="#282739"/>
<path d="M40.7655 7.66418H40.8774V1.05971H41.5164L41.516 3.93914H45.0985V1.05971H45.7377V7.55224H45.0981L45.0985 4.52202H41.516V7.55224H40.7655V7.66418H40.8774H40.7655V7.77612H41.6283H41.7403V4.7459H44.8742V7.77612H45.8496H45.9616V0.835825H44.9866H44.8742V3.71526H41.7398L41.7403 0.835825H40.7655H40.6536V7.77612H40.7655V7.66418Z" fill="#282739"/>
<path d="M48.5926 6.23382C49.0903 6.73711 49.6976 6.98853 50.4169 6.98853C51.1367 6.98853 51.7453 6.73711 52.2417 6.23382C52.7388 5.73054 52.9885 5.08722 52.9885 4.30588C52.9885 3.52453 52.7388 2.88121 52.2417 2.37793C51.7453 1.87465 51.1367 1.62323 50.4169 1.62323C49.6976 1.62323 49.0903 1.87465 48.5926 2.37793C48.0964 2.88121 47.8471 3.52453 47.8471 4.30588C47.8471 5.08722 48.0964 5.73054 48.5926 6.23382ZM52.88 6.7961C52.2198 7.47513 51.3991 7.81409 50.4169 7.81409C49.4357 7.81409 48.6146 7.47513 47.9556 6.7961C47.2953 6.11786 46.966 5.28759 46.966 4.30588C46.966 3.32416 47.2953 2.49379 47.9556 1.81565C48.6146 1.13651 49.4357 0.79722 50.4169 0.79722C51.3934 0.79722 52.2119 1.1383 52.8757 1.82002C53.5381 2.50173 53.8696 3.33032 53.8696 4.30588C53.8696 5.28759 53.5395 6.11786 52.88 6.7961Z" fill="#282739"/>
<path d="M48.5927 6.23394L48.5131 6.31264C49.0287 6.83607 49.6719 7.10193 50.417 7.10059C51.1625 7.10193 51.8066 6.83607 52.3213 6.31264C52.8404 5.78876 53.1014 5.11096 53.1005 4.306C53.1014 3.50103 52.8404 2.82324 52.3213 2.29936C51.8066 1.77592 51.1625 1.51006 50.417 1.51141C49.6719 1.51006 49.0287 1.77592 48.5131 2.29936C47.9954 2.82324 47.7343 3.50103 47.7352 4.306C47.7343 5.11096 47.9954 5.78876 48.5131 6.31264L48.5927 6.23394L48.6723 6.15525C48.1974 5.672 47.96 5.06417 47.9591 4.306C47.96 3.54783 48.1974 2.93999 48.6723 2.45674C49.1516 1.97361 49.7239 1.73663 50.417 1.73529C51.1106 1.73663 51.6842 1.97361 52.1621 2.45674L52.1651 2.46032L52.1621 2.45674C52.6379 2.93999 52.8753 3.54783 52.8766 4.306C52.8753 5.06417 52.6379 5.672 52.1621 6.15525C51.6842 6.63838 51.1106 6.87536 50.417 6.87671C49.7239 6.87536 49.1516 6.63838 48.6723 6.15525L48.5927 6.23394ZM52.8801 6.79622L52.7996 6.71842C52.1582 7.37607 51.3733 7.70092 50.417 7.70227C49.4611 7.70092 48.6762 7.37607 48.0357 6.71842L48.0325 6.71495L48.0357 6.71842C47.395 6.05853 47.0789 5.26275 47.078 4.306C47.0789 3.34924 47.395 2.55346 48.0357 1.89357C48.6762 1.23592 49.4611 0.910624 50.417 0.909281C51.3672 0.910624 52.1504 1.23727 52.7957 1.89839C53.4385 2.5613 53.7564 3.35585 53.7577 4.306C53.7564 5.26275 53.4394 6.05853 52.7996 6.71842L52.8801 6.79622L52.9606 6.87402C53.6392 6.17708 53.9825 5.31256 53.9816 4.306C53.9825 3.30514 53.6379 2.44241 52.9562 1.74234C52.2741 1.03958 51.4192 0.684169 50.417 0.6854C49.41 0.684169 48.5529 1.0379 47.8751 1.73797V1.73753C47.1952 2.43491 46.8532 3.29943 46.8541 4.306C46.8532 5.31256 47.1952 6.17708 47.8751 6.87447V6.87402C48.5529 7.57409 49.41 7.92704 50.417 7.92615C51.4244 7.92704 52.2814 7.57409 52.9606 6.87402L52.8801 6.79622" fill="#282739"/>
<path d="M57.3982 7.66418V0.947764H58.2601V3.8272H61.6183V0.947764H62.4825V7.66418H61.6183V4.63396H58.2601V7.66418H57.3982Z" fill="#282739"/>
<path d="M57.3982 7.66418H57.5101V1.05971H58.1482V3.93914H61.7303V1.05971H62.3706V7.55224H61.7303V4.52202H58.1482V7.55224H57.3982V7.66418H57.5101H57.3982V7.77612H58.2601H58.3721V4.7459H61.5064V7.77612H62.4825H62.5945V0.835825H61.6183H61.5064V3.71526H58.3721V0.835825H57.3982H57.2863V7.77612H57.3982V7.66418Z" fill="#282739"/>
<path d="M65.3616 5.03706H67.5937L66.4967 2.00773H66.4598L65.3616 5.03706ZM63.4575 7.66418L65.9907 0.947764H66.9657L69.4989 7.66418H68.5418L67.8948 5.84381H65.0706L64.4146 7.66418H63.4575Z" fill="#282739"/>
<path d="M65.3616 5.03706V5.149H67.7538L66.5751 1.89579H66.4598H66.3814L65.2027 5.149H65.3616V5.03706L65.4669 5.07556L66.565 2.04579L66.4598 2.00773V2.11967H66.4967V2.00773L66.3915 2.04579L67.4348 4.92512H65.3616V5.03706L65.4669 5.07556L65.3616 5.03706ZM63.4575 7.66418L63.5628 7.70358L66.068 1.05971H66.8885L69.3366 7.55224H68.6213L67.9732 5.73187H64.9922L64.3352 7.55224H63.4575V7.66418L63.5628 7.70358L63.4575 7.66418V7.77612H64.4146H64.493L65.1501 5.95575H67.8154L68.4624 7.77612H69.499H69.6601L67.043 0.835825H65.9907H65.9135L63.2952 7.77612H63.4575V7.66418" fill="#282739"/>
</svg>
