<svg width="27" height="29" viewBox="0 0 27 29" fill="none" xmlns="http://www.w3.org/2000/svg">
<path d="M0.988622 28.3688L0.905449 28.2892C0.579703 27.9445 0.38739 27.4093 0.38739 26.7163V26.8794V2.1227C0.38739 2.12046 0.38739 2.11878 0.38739 2.11699C0.38739 2.11911 0.38739 2.1209 0.38739 2.12314V2.28669C0.38739 1.53624 0.611606 0.970943 0.987278 0.631988L14.8565 14.5008L0.988622 28.3688ZM0.38739 2.11564C0.38739 2.05397 0.389069 1.99408 0.392203 1.93508C0.389069 1.99363 0.38739 2.05397 0.38739 2.11564ZM0.392203 1.9324C0.392203 1.93162 0.392202 1.93072 0.392538 1.92982C0.392202 1.93072 0.392203 1.93162 0.392203 1.9324ZM0.392538 1.92456C0.392538 1.92411 0.392538 1.92367 0.392538 1.92322C0.392538 1.92367 0.392538 1.92411 0.392538 1.92456Z" fill="url(#paint0_linear_1_45)"/>
<path d="M19.4789 19.2893L19.5843 19.2294L25.0614 16.1174C25.5836 15.8205 25.9317 15.4606 26.1053 15.0798C25.9321 15.4606 25.584 15.8209 25.0614 16.1178L19.5843 19.2299L19.4789 19.2893V19.2893ZM19.4802 19.1253L14.8565 14.5008L19.4798 9.87714L25.0614 13.0482C25.7702 13.4509 26.1682 13.97 26.2347 14.5004C26.2347 14.5008 26.2347 14.5017 26.2347 14.5025C26.1682 15.0317 25.7702 15.5512 25.0614 15.9538L19.4802 19.1253" fill="url(#paint1_linear_1_45)"/>
<path d="M1.97731 28.897C1.58989 28.897 1.25183 28.771 0.988208 28.5332L0.988657 28.5327C1.25228 28.7706 1.59078 28.897 1.97821 28.897C2.01179 28.897 2.04593 28.8961 2.08052 28.8944C2.04549 28.8961 2.01089 28.897 1.97731 28.897V28.897ZM1.97776 28.733C1.59034 28.7334 1.25228 28.607 0.988657 28.3692V28.3688L14.8565 14.5009L19.4802 19.1254L3.23183 28.3574C2.78227 28.6123 2.35634 28.733 1.97776 28.733V28.733ZM0.984739 28.5301C0.960224 28.5079 0.936156 28.4842 0.912537 28.4597L0.984739 28.5301Z" fill="url(#paint2_linear_1_45)"/>
<path d="M14.8565 14.5009L0.987305 0.632013C1.25092 0.394588 1.58854 0.268654 1.97551 0.268654C2.3551 0.268654 2.78137 0.389775 3.23182 0.64511L19.4797 9.87716L14.8565 14.5009V14.5009ZM19.5843 9.77272L3.23182 0.481675C2.78137 0.226227 2.3551 0.10511 1.97551 0.10511C1.97372 0.10511 1.97249 0.10511 1.9707 0.10511C1.97294 0.10511 1.97462 0.10511 1.9773 0.10511C2.356 0.10511 2.78182 0.22578 3.23182 0.481228L19.5843 9.77272V9.77272Z" fill="url(#paint3_linear_1_45)"/>
<path d="M2.08043 28.8944C2.43237 28.8743 2.82204 28.7531 3.23174 28.521L19.4788 19.2894L3.23174 28.521C2.82237 28.7536 2.43237 28.8743 2.08043 28.8944V28.8944ZM0.988119 28.5332L0.98465 28.5302C0.985881 28.5311 0.987224 28.5323 0.988119 28.5332ZM0.912448 28.4597L0.905396 28.4528V28.4524C0.908082 28.4549 0.910209 28.4575 0.912448 28.4597Z" fill="white"/>
<path d="M19.4788 19.2893L19.5843 19.2294L19.4788 19.2893Z" fill="url(#paint4_linear_1_45)"/>
<path d="M1.97812 28.897C1.59069 28.897 1.25219 28.7706 0.988568 28.5327L0.988119 28.5332C0.987224 28.5323 0.985881 28.531 0.98465 28.5301L0.912448 28.4597C0.910209 28.4575 0.908082 28.4549 0.905396 28.4523L0.988568 28.3692C1.25219 28.607 1.59025 28.7334 1.97767 28.733C2.35625 28.733 2.78219 28.6123 3.23174 28.3574L19.4801 19.1254L19.5842 19.2295L19.4788 19.2894L3.23174 28.521C2.82204 28.7531 2.43237 28.8742 2.08043 28.8944C2.04584 28.8961 2.0117 28.897 1.97812 28.897" fill="url(#paint5_linear_1_45)"/>
<path d="M0.90545 28.4528C0.579703 28.1081 0.38739 27.5729 0.38739 26.8799V26.8794C0.38739 27.5729 0.579703 28.1076 0.90545 28.4523V28.4528" fill="white"/>
<path d="M0.90545 28.4524C0.579703 28.1077 0.38739 27.573 0.38739 26.8795V26.7164C0.38739 27.4094 0.579703 27.9446 0.90545 28.2893L0.988623 28.3689L0.90545 28.4524" fill="url(#paint6_linear_1_45)"/>
<path d="M0.905396 28.4524L0.98857 28.3689V28.3692L0.905396 28.4524" fill="url(#paint7_linear_1_45)"/>
<path d="M26.1052 15.0798C26.1913 14.8909 26.2346 14.6968 26.2346 14.5026C26.2346 14.5022 26.2346 14.5018 26.2346 14.5018C26.2346 14.6963 26.1913 14.8904 26.1052 15.0798Z" fill="white"/>
<path d="M19.5843 19.2295L19.4802 19.1254L25.0614 15.9539C25.7702 15.5512 26.1682 15.0317 26.2346 14.5026C26.2346 14.6968 26.1913 14.8909 26.1052 15.0799C25.9316 15.4607 25.5836 15.8206 25.0614 16.1174L19.5843 19.2295Z" fill="url(#paint8_linear_1_45)"/>
<path d="M26.2347 14.5009V14.5004C26.2342 13.9148 25.8429 13.3294 25.0614 12.8851L19.5843 9.77306H19.5839L19.5843 9.77272L25.0614 12.8847C25.8438 13.329 26.2356 13.9153 26.2347 14.5009Z" fill="#282739"/>
<path d="M26.2347 14.5004C26.1682 13.97 25.7702 13.4509 25.0614 13.0482L19.4797 9.87712L19.5838 9.77302H19.5843L25.0614 12.8851C25.8429 13.3294 26.2342 13.9148 26.2347 14.5004Z" fill="url(#paint9_linear_1_45)"/>
<path d="M0.38739 2.11707C0.38739 2.11662 0.38739 2.11617 0.38739 2.11572C0.38739 2.11617 0.38739 2.11662 0.38739 2.11707ZM0.392203 1.93516C0.392203 1.93427 0.392203 1.93337 0.392203 1.93248C0.392203 1.93337 0.392203 1.93427 0.392203 1.93516ZM0.392538 1.9299C0.392538 1.92811 0.392538 1.92643 0.392538 1.92464C0.392538 1.92643 0.392538 1.92811 0.392538 1.9299ZM0.392538 1.9233C0.457352 0.773337 1.08265 0.109083 1.9672 0.105165C1.5837 0.107404 1.24967 0.233337 0.988173 0.468971V0.468523L0.985039 0.471656C0.957502 0.496507 0.931308 0.522813 0.905449 0.549903C0.611606 0.860761 0.426232 1.32643 0.392538 1.9233Z" fill="#282739"/>
<path d="M0.38739 2.28674V2.1232C0.38739 2.12096 0.38739 2.11917 0.38739 2.11704C0.38739 2.11659 0.38739 2.11615 0.38739 2.1157C0.38739 2.05402 0.389069 1.99368 0.392204 1.93514C0.392204 1.93424 0.392204 1.93335 0.392204 1.93245C0.392204 1.93167 0.392202 1.93077 0.392538 1.92988C0.392538 1.92809 0.392538 1.92641 0.392538 1.92462C0.392538 1.92417 0.392538 1.92372 0.392538 1.92327C0.426232 1.32641 0.611607 0.860735 0.905451 0.549876L0.987281 0.632041C0.611607 0.970997 0.38739 1.53629 0.38739 2.28674V2.28674ZM0.985041 0.471629L0.988176 0.468497C0.98728 0.46984 0.985937 0.470734 0.985041 0.471629Z" fill="url(#paint10_linear_1_45)"/>
<path d="M19.4796 9.8772L3.23174 0.645144C2.78129 0.389809 2.35502 0.268688 1.97543 0.268688C1.58846 0.268688 1.25084 0.394621 0.987224 0.632047L0.905396 0.549882C0.931254 0.522792 0.957448 0.496486 0.984985 0.471635C0.98588 0.470739 0.987224 0.469845 0.988119 0.46895C1.24961 0.233315 1.58364 0.107383 1.96715 0.105144C1.96804 0.105144 1.96928 0.105144 1.97062 0.105144C1.97241 0.105144 1.97364 0.105144 1.97543 0.105144C2.35502 0.105144 2.78129 0.226261 3.23174 0.481709L19.5842 9.77276L19.5838 9.77309L19.4796 9.8772Z" fill="url(#paint11_linear_1_45)"/>
<defs>
<linearGradient id="paint0_linear_1_45" x1="13.6267" y1="1.86154" x2="-5.15969" y2="20.6479" gradientUnits="userSpaceOnUse">
<stop stop-color="#00A0FF"/>
<stop offset="0.00657445" stop-color="#00A1FF"/>
<stop offset="0.2601" stop-color="#00BEFF"/>
<stop offset="0.5122" stop-color="#00D2FF"/>
<stop offset="0.7604" stop-color="#00DFFF"/>
<stop offset="1" stop-color="#00E3FF"/>
</linearGradient>
<linearGradient id="paint1_linear_1_45" x1="27.0983" y1="14.5015" x2="0.0121033" y2="14.5015" gradientUnits="userSpaceOnUse">
<stop stop-color="#FFE000"/>
<stop offset="0.4087" stop-color="#FFBD00"/>
<stop offset="0.7754" stop-color="#FFA500"/>
<stop offset="1" stop-color="#FF9C00"/>
</linearGradient>
<linearGradient id="paint2_linear_1_45" x1="17.0154" y1="17.0703" x2="-8.46034" y2="42.546" gradientUnits="userSpaceOnUse">
<stop stop-color="#FF3A44"/>
<stop offset="1" stop-color="#C31162"/>
</linearGradient>
<linearGradient id="paint3_linear_1_45" x1="-2.60743" y1="-7.69086" x2="8.7685" y2="3.68507" gradientUnits="userSpaceOnUse">
<stop stop-color="#32A071"/>
<stop offset="0.0685" stop-color="#2DA771"/>
<stop offset="0.4762" stop-color="#15CF74"/>
<stop offset="0.8009" stop-color="#06E775"/>
<stop offset="1" stop-color="#00F076"/>
</linearGradient>
<linearGradient id="paint4_linear_1_45" x1="27.0982" y1="14.5016" x2="0.012207" y2="14.5016" gradientUnits="userSpaceOnUse">
<stop stop-color="#CCB300"/>
<stop offset="0.4087" stop-color="#CC9700"/>
<stop offset="0.7754" stop-color="#CC8400"/>
<stop offset="1" stop-color="#CC7D00"/>
</linearGradient>
<linearGradient id="paint5_linear_1_45" x1="17.0153" y1="17.0703" x2="-8.46043" y2="42.546" gradientUnits="userSpaceOnUse">
<stop stop-color="#CC2E36"/>
<stop offset="1" stop-color="#9C0E4E"/>
</linearGradient>
<linearGradient id="paint6_linear_1_45" x1="13.6267" y1="1.86165" x2="-5.15967" y2="20.6481" gradientUnits="userSpaceOnUse">
<stop stop-color="#008DE0"/>
<stop offset="0.00657445" stop-color="#008DE0"/>
<stop offset="0.2601" stop-color="#00A7E0"/>
<stop offset="0.5122" stop-color="#00B8E0"/>
<stop offset="0.7604" stop-color="#00C4E0"/>
<stop offset="1" stop-color="#00C7E0"/>
</linearGradient>
<linearGradient id="paint7_linear_1_45" x1="17.0158" y1="17.0702" x2="-8.46008" y2="42.5467" gradientUnits="userSpaceOnUse">
<stop stop-color="#E0333C"/>
<stop offset="1" stop-color="#AB0F56"/>
</linearGradient>
<linearGradient id="paint8_linear_1_45" x1="27.0983" y1="14.5016" x2="0.0120434" y2="14.5016" gradientUnits="userSpaceOnUse">
<stop stop-color="#E0C500"/>
<stop offset="0.4087" stop-color="#E0A600"/>
<stop offset="0.7754" stop-color="#E09100"/>
<stop offset="1" stop-color="#E08900"/>
</linearGradient>
<linearGradient id="paint9_linear_1_45" x1="27.0983" y1="14.5015" x2="0.0120995" y2="14.5015" gradientUnits="userSpaceOnUse">
<stop stop-color="#FFE840"/>
<stop offset="0.4087" stop-color="#FFCE40"/>
<stop offset="0.7754" stop-color="#FFBC40"/>
<stop offset="1" stop-color="#FFB540"/>
</linearGradient>
<linearGradient id="paint10_linear_1_45" x1="13.6267" y1="1.86159" x2="-5.15966" y2="20.648" gradientUnits="userSpaceOnUse">
<stop stop-color="#40B8FF"/>
<stop offset="0.00657445" stop-color="#40B9FF"/>
<stop offset="0.2601" stop-color="#40CEFF"/>
<stop offset="0.5122" stop-color="#40DDFF"/>
<stop offset="0.7604" stop-color="#40E7FF"/>
<stop offset="1" stop-color="#40EAFF"/>
</linearGradient>
<linearGradient id="paint11_linear_1_45" x1="-2.60751" y1="-7.69083" x2="8.76842" y2="3.6851" gradientUnits="userSpaceOnUse">
<stop stop-color="#65B895"/>
<stop offset="0.0685" stop-color="#62BD95"/>
<stop offset="0.4762" stop-color="#50DB97"/>
<stop offset="0.8009" stop-color="#44ED98"/>
<stop offset="1" stop-color="#40F498"/>
</linearGradient>
</defs>
</svg>
