<svg width="96" height="20" viewBox="0 0 96 20" fill="none" xmlns="http://www.w3.org/2000/svg">
<path d="M73.9284 14.694H76.0172V0.700168H73.9284V14.694ZM92.7422 5.74106L90.3478 11.8081H90.2762L87.7911 5.74106H85.5411L89.2676 14.2209L87.143 18.9377H89.3225L95.065 5.74106H92.7422ZM80.8967 13.1046C80.2116 13.1046 79.2579 12.7626 79.2579 11.9161C79.2579 10.836 80.4467 10.422 81.4721 10.422C82.3911 10.422 82.8221 10.62 83.3807 10.8903C83.2184 12.1864 82.1023 13.1046 80.8967 13.1046V13.1046ZM81.1486 5.43491C79.6363 5.43491 78.0702 6.10129 77.4221 7.57755L79.2758 8.35151C79.6721 7.57755 80.4098 7.32524 81.1844 7.32524C82.2646 7.32524 83.3628 7.97371 83.3807 9.12591V9.26976C83.0023 9.05371 82.193 8.72976 81.2023 8.72976C79.2042 8.72976 77.1691 9.82767 77.1691 11.8802C77.1691 13.7526 78.8079 14.959 80.6437 14.959C82.0486 14.959 82.8221 14.3289 83.309 13.5909H83.3807V14.6709H85.3967V9.30558C85.3967 6.82151 83.543 5.43491 81.1486 5.43491V5.43491ZM68.2396 7.44457H65.2687V2.64782H68.2396C69.8012 2.64782 70.6878 3.94073 70.6878 5.04614C70.6878 6.13062 69.8012 7.44457 68.2396 7.44457ZM68.1859 0.700168H63.181V14.694H65.2687V9.39222H68.1859C70.5008 9.39222 72.7766 7.71614 72.7766 5.04614C72.7766 2.37625 70.5008 0.700168 68.1859 0.700168ZM40.8937 13.1072C39.4507 13.1072 38.2425 11.899 38.2425 10.2396C38.2425 8.56274 39.4507 7.33621 40.8937 7.33621C42.3184 7.33621 43.4365 8.56274 43.4365 10.2396C43.4365 11.899 42.3184 13.1072 40.8937 13.1072V13.1072ZM43.2922 6.52464H43.22C42.7513 5.96573 41.8491 5.46076 40.7132 5.46076C38.3326 5.46076 36.1507 7.55259 36.1507 10.2396C36.1507 12.9087 38.3326 14.9826 40.7132 14.9826C41.8491 14.9826 42.7513 14.4776 43.22 13.9008H43.2922V14.586C43.2922 16.4077 42.3184 17.3815 40.7494 17.3815C39.4691 17.3815 38.6755 16.4615 38.3506 15.6862L36.5294 16.4436C37.0524 17.7059 38.4411 19.257 40.7494 19.257C43.202 19.257 45.276 17.8139 45.276 14.2974V5.74935H43.2922V6.52464ZM46.7185 14.694H48.8105V0.69972H46.7185V14.694ZM51.8944 10.0774C51.8403 8.23778 53.3191 7.30028 54.383 7.30028C55.2131 7.30028 55.9161 7.71479 56.1501 8.31043L51.8944 10.0774ZM58.3866 8.49054C57.9904 7.42621 56.7814 5.46076 54.3108 5.46076C51.8582 5.46076 49.8205 7.39039 49.8205 10.2217C49.8205 12.8908 51.8403 14.9826 54.5452 14.9826C56.7277 14.9826 57.9904 13.6481 58.5131 12.8728L56.89 11.7905C56.3493 12.5842 55.6094 13.1072 54.5452 13.1072C53.4813 13.1072 52.724 12.6201 52.2369 11.6646L58.6027 9.03144L58.3866 8.49054ZM7.6685 6.92159V8.94132H12.5015C12.3572 10.0774 11.9785 10.9069 11.4014 11.484C10.6983 12.1876 9.59813 12.9629 7.6685 12.9629C4.69279 12.9629 2.36656 10.5645 2.36656 7.58886C2.36656 4.61327 4.69279 2.21449 7.6685 2.21449C9.27361 2.21449 10.4455 2.84584 11.3113 3.65741L12.7359 2.23285C11.5278 1.07841 9.92253 0.194756 7.6685 0.194756C3.59264 0.194756 0.16626 3.51312 0.16626 7.58886C0.16626 11.6646 3.59264 14.9826 7.6685 14.9826C9.8688 14.9826 11.5278 14.2616 12.826 12.9087C14.1606 11.5742 14.5756 9.69871 14.5756 8.18405C14.5756 7.71479 14.5396 7.28237 14.4671 6.92159H7.6685ZM20.0703 13.1072C18.6272 13.1072 17.3828 11.9169 17.3828 10.2217C17.3828 8.50845 18.6272 7.33621 20.0703 7.33621C21.5127 7.33621 22.7572 8.50845 22.7572 10.2217C22.7572 11.9169 21.5127 13.1072 20.0703 13.1072V13.1072ZM20.0703 5.46076C17.437 5.46076 15.2909 7.46248 15.2909 10.2217C15.2909 12.9629 17.437 14.9826 20.0703 14.9826C22.703 14.9826 24.8491 12.9629 24.8491 10.2217C24.8491 7.46248 22.703 5.46076 20.0703 5.46076ZM30.4955 13.1072C29.053 13.1072 27.8085 11.9169 27.8085 10.2217C27.8085 8.50845 29.053 7.33621 30.4955 7.33621C31.9381 7.33621 33.1825 8.50845 33.1825 10.2217C33.1825 11.9169 31.9381 13.1072 30.4955 13.1072ZM30.4955 5.46076C27.8623 5.46076 25.7166 7.46248 25.7166 10.2217C25.7166 12.9629 27.8623 14.9826 30.4955 14.9826C33.1283 14.9826 35.2744 12.9629 35.2744 10.2217C35.2744 7.46248 33.1283 5.46076 30.4955 5.46076Z" fill="#282739"/>
</svg>
