<svg width="40" height="40" viewBox="0 0 40 40" fill="none" xmlns="http://www.w3.org/2000/svg">
<rect opacity="0.2" width="40" height="40" rx="5" fill="white"/>
<g clip-path="url(#clip0_931_567)">
<path d="M24.9407 22.8467L22.3157 13.8623L24.0813 13.6717C24.4469 13.6311 24.7125 13.303 24.6719 12.9373C24.6313 12.5717 24.3063 12.303 23.9375 12.3467L18.8407 12.8967C18.475 12.9373 18.2094 13.2655 18.25 13.6311C18.2875 13.9717 18.575 14.2248 18.9125 14.2248C18.9375 14.2248 18.9594 14.2248 18.9844 14.2217L20.9719 14.0092L23.6469 23.1842C23.1188 23.4936 22.7219 23.9936 22.5469 24.5873H17.4532C17.1594 23.5842 16.225 22.8467 15.1125 22.8467C13.7657 22.8467 12.675 23.9248 12.675 25.253C12.675 26.5811 13.7657 27.6592 15.1125 27.6592C16.225 27.6592 17.1594 26.9248 17.4532 25.9186H22.5438C22.8375 26.9217 23.7719 27.6592 24.8844 27.6592C26.2313 27.6592 27.3219 26.5811 27.3219 25.253C27.3219 23.9405 26.2625 22.8748 24.9407 22.8467Z" fill="white"/>
</g>
<defs>
<clipPath id="clip0_931_567">
<rect width="16" height="16" fill="white" transform="translate(12 12)"/>
</clipPath>
</defs>
</svg>
