<svg width="40" height="40" viewBox="0 0 40 40" fill="none" xmlns="http://www.w3.org/2000/svg">
<circle cx="20" cy="20" r="19.35" stroke="#EAEBED" stroke-width="1.3"/>
<path d="M27.9935 16.5149C27.7329 15.9054 27.357 15.353 26.887 14.8887C26.4167 14.4231 25.8621 14.053 25.2535 13.7987C24.6224 13.5339 23.9455 13.3984 23.2622 13.4C22.3034 13.4 21.3681 13.6652 20.5552 14.166C20.3607 14.2858 20.176 14.4174 20.001 14.5607C19.8259 14.4174 19.6412 14.2858 19.4467 14.166C18.6339 13.6652 17.6985 13.4 16.7398 13.4C16.0494 13.4 15.3804 13.5336 14.7484 13.7987C14.1378 14.054 13.5875 14.4213 13.1149 14.8887C12.6443 15.3525 12.2683 15.905 12.0084 16.5149C11.7381 17.1493 11.6 17.823 11.6 18.5163C11.6 19.1703 11.7322 19.8518 11.9948 20.5451C12.2145 21.1245 12.5296 21.7255 12.9321 22.3323C13.5699 23.2927 14.447 24.2944 15.536 25.3098C17.3407 26.9929 19.1278 28.1556 19.2036 28.2028L19.6645 28.5013C19.8687 28.6329 20.1313 28.6329 20.3354 28.5013L20.7963 28.2028C20.8722 28.1537 22.6574 26.9929 24.464 25.3098C25.553 24.2944 26.43 23.2927 27.0679 22.3323C27.4704 21.7255 27.7874 21.1245 28.0052 20.5451C28.2677 19.8518 28.4 19.1703 28.4 18.5163C28.4019 17.823 28.2639 17.1493 27.9935 16.5149V16.5149ZM20.001 26.9478C20.001 26.9478 13.0779 22.4679 13.0779 18.5163C13.0779 16.5149 14.7173 14.8927 16.7398 14.8927C18.1613 14.8927 19.3942 15.694 20.001 16.8645C20.6077 15.694 21.8406 14.8927 23.2622 14.8927C25.2846 14.8927 26.924 16.5149 26.924 18.5163C26.924 22.4679 20.001 26.9478 20.001 26.9478Z" fill="#6F73EE"/>
</svg>
