<svg width="35" height="24" viewBox="0 0 35 24" fill="none" xmlns="http://www.w3.org/2000/svg">
<rect x="1.02524" y="0.559815" width="33.5905" height="22.8805" rx="2.6775" fill="white" stroke="#EAEBED" stroke-width="0.486818"/>
<path d="M20.347 12.1237C20.347 15.8356 17.3724 18.8446 13.7031 18.8446C10.0338 18.8446 7.05925 15.8356 7.05925 12.1237C7.05925 8.41175 10.0338 5.40265 13.7031 5.40265C17.3724 5.40265 20.347 8.41175 20.347 12.1237Z" fill="#ED0006"/>
<path d="M28.9661 12.1237C28.9661 15.8356 25.9915 18.8446 22.3222 18.8446C18.6529 18.8446 15.6783 15.8356 15.6783 12.1237C15.6783 8.41175 18.6529 5.40265 22.3222 5.40265C25.9915 5.40265 28.9661 8.41175 28.9661 12.1237Z" fill="#0099DF"/>
<path fill-rule="evenodd" clip-rule="evenodd" d="M18.0127 17.2391C19.4412 16.0063 20.347 14.172 20.347 12.1237C20.347 10.0753 19.4412 8.24099 18.0127 7.00824C16.5842 8.24099 15.6784 10.0753 15.6784 12.1237C15.6784 14.172 16.5842 16.0063 18.0127 17.2391Z" fill="#6C6BBD"/>
</svg>
