<svg width="35" height="24" viewBox="0 0 35 24" fill="none" xmlns="http://www.w3.org/2000/svg">
<rect x="1.07978" y="0.559815" width="33.5905" height="22.8805" rx="2.6775" fill="white" stroke="#EAEBED" stroke-width="0.486818"/>
<path fill-rule="evenodd" clip-rule="evenodd" d="M18.0672 17.2391C16.907 18.2403 15.4021 18.8446 13.7577 18.8446C10.0884 18.8446 7.11379 15.8356 7.11379 12.1237C7.11379 8.41175 10.0884 5.40265 13.7577 5.40265C15.4021 5.40265 16.907 6.00704 18.0672 7.00821C19.2274 6.00704 20.7323 5.40265 22.3767 5.40265C26.046 5.40265 29.0206 8.41175 29.0206 12.1237C29.0206 15.8356 26.046 18.8446 22.3767 18.8446C20.7323 18.8446 19.2274 18.2403 18.0672 17.2391Z" fill="#ED0006"/>
<path fill-rule="evenodd" clip-rule="evenodd" d="M18.0672 17.2391C19.4957 16.0063 20.4015 14.172 20.4015 12.1237C20.4015 10.0753 19.4957 8.24096 18.0672 7.00821C19.2274 6.00704 20.7323 5.40265 22.3767 5.40265C26.046 5.40265 29.0206 8.41175 29.0206 12.1237C29.0206 15.8356 26.046 18.8446 22.3767 18.8446C20.7323 18.8446 19.2274 18.2403 18.0672 17.2391Z" fill="#F9A000"/>
<path fill-rule="evenodd" clip-rule="evenodd" d="M18.0672 17.2391C19.4957 16.0063 20.4015 14.172 20.4015 12.1237C20.4015 10.0753 19.4957 8.24099 18.0672 7.00824C16.6387 8.24099 15.7329 10.0753 15.7329 12.1237C15.7329 14.172 16.6387 16.0063 18.0672 17.2391Z" fill="#FF5E00"/>
</svg>
