<svg width="20" height="20" viewBox="0 0 20 20" fill="none" xmlns="http://www.w3.org/2000/svg">
<g clip-path="url(#clip0_14_5)">
<path d="M19.703 7.22909C19.4389 6.89776 19.0427 6.70768 18.6159 6.70768H14.7642L12.6756 1.92514C12.5461 1.62862 12.2007 1.49311 11.9041 1.62268C11.6076 1.75217 11.4721 2.0976 11.6017 2.39417L13.4854 6.70772H6.51443L8.39822 2.39417C8.52771 2.0976 8.39232 1.75221 8.09576 1.62268C7.79924 1.49311 7.45381 1.62854 7.32431 1.92514L5.23568 6.70772H1.38396C0.957166 6.70772 0.560955 6.89776 0.296854 7.22913C0.0375958 7.55444 -0.0580683 7.97264 0.0343926 8.37663L2.09131 17.361C2.23494 17.9883 2.7899 18.4265 3.44088 18.4265H16.559C17.21 18.4265 17.7649 17.9883 17.9086 17.361L19.9655 8.37659C20.0579 7.9726 19.9623 7.5544 19.703 7.22909ZM16.559 17.2546H3.44088C3.34138 17.2546 3.25424 17.1893 3.23365 17.0994L1.17674 8.1151C1.1606 8.04459 1.18767 7.99155 1.2133 7.95948C1.23705 7.92963 1.29084 7.87959 1.38396 7.87959H4.72392L4.57045 8.23104C4.44096 8.5276 4.57635 8.87299 4.87291 9.00252C4.94924 9.03588 5.02877 9.05167 5.10709 9.05167C5.33295 9.05167 5.54818 8.9203 5.64435 8.7001L6.00267 7.87967H13.9973L14.3556 8.7001C14.4518 8.92034 14.667 9.05167 14.8929 9.05167C14.9712 9.05167 15.0507 9.03588 15.127 9.00252C15.4236 8.87303 15.559 8.5276 15.4295 8.23104L15.276 7.87959H18.616C18.7091 7.87959 18.7629 7.92963 18.7867 7.95948C18.8122 7.99159 18.8394 8.04463 18.8232 8.11506L16.7663 17.0994C16.7457 17.1893 16.6585 17.2546 16.559 17.2546Z" fill="#6F73EE"/>
<path d="M19.703 7.22909C19.4389 6.89776 19.0427 6.70768 18.6159 6.70768H14.7642L12.6756 1.92514C12.5461 1.62862 12.2007 1.49311 11.9041 1.62268C11.6076 1.75217 11.4721 2.0976 11.6017 2.39417L13.4854 6.70772H6.51443L8.39822 2.39417C8.52771 2.0976 8.39232 1.75221 8.09576 1.62268C7.79924 1.49311 7.45381 1.62854 7.32431 1.92514L5.23568 6.70772H1.38396C0.957166 6.70772 0.560955 6.89776 0.296854 7.22913C0.0375958 7.55444 -0.0580683 7.97264 0.0343926 8.37663L2.09131 17.361C2.23494 17.9883 2.7899 18.4265 3.44088 18.4265H16.559C17.21 18.4265 17.7649 17.9883 17.9086 17.361L19.9655 8.37659C20.0579 7.9726 19.9623 7.5544 19.703 7.22909ZM16.559 17.2546H3.44088C3.34138 17.2546 3.25424 17.1893 3.23365 17.0994L1.17674 8.1151C1.1606 8.04459 1.18767 7.99155 1.2133 7.95948C1.23705 7.92963 1.29084 7.87959 1.38396 7.87959H4.72392L4.57045 8.23104C4.44096 8.5276 4.57635 8.87299 4.87291 9.00252C4.94924 9.03588 5.02877 9.05167 5.10709 9.05167C5.33295 9.05167 5.54818 8.9203 5.64435 8.7001L6.00267 7.87967H13.9973L14.3556 8.7001C14.4518 8.92034 14.667 9.05167 14.8929 9.05167C14.9712 9.05167 15.0507 9.03588 15.127 9.00252C15.4236 8.87303 15.559 8.5276 15.4295 8.23104L15.276 7.87959H18.616C18.7091 7.87959 18.7629 7.92963 18.7867 7.95948C18.8122 7.99159 18.8394 8.04463 18.8232 8.11506L16.7663 17.0994C16.7457 17.1893 16.6585 17.2546 16.559 17.2546Z" stroke="#6F73EE"/>
<path d="M6.48438 10.4188C6.16078 10.4188 5.89844 10.6812 5.89844 11.0048V15.3017C5.89844 15.6252 6.16078 15.8876 6.48438 15.8876C6.80797 15.8876 7.07031 15.6252 7.07031 15.3017V11.0048C7.07031 10.6812 6.80801 10.4188 6.48438 10.4188Z" fill="#6F73EE"/>
<path d="M6.48438 10.4188C6.16078 10.4188 5.89844 10.6812 5.89844 11.0048V15.3017C5.89844 15.6252 6.16078 15.8876 6.48438 15.8876C6.80797 15.8876 7.07031 15.6252 7.07031 15.3017V11.0048C7.07031 10.6812 6.80801 10.4188 6.48438 10.4188Z" stroke="#6F73EE"/>
<path d="M10 10.4188C9.67641 10.4188 9.41406 10.6812 9.41406 11.0048V15.3017C9.41406 15.6252 9.67641 15.8876 10 15.8876C10.3236 15.8876 10.5859 15.6252 10.5859 15.3017V11.0048C10.5859 10.6812 10.3236 10.4188 10 10.4188Z" fill="#6F73EE"/>
<path d="M10 10.4188C9.67641 10.4188 9.41406 10.6812 9.41406 11.0048V15.3017C9.41406 15.6252 9.67641 15.8876 10 15.8876C10.3236 15.8876 10.5859 15.6252 10.5859 15.3017V11.0048C10.5859 10.6812 10.3236 10.4188 10 10.4188Z" stroke="#6F73EE"/>
<path d="M13.5156 10.4188C13.192 10.4188 12.9297 10.6812 12.9297 11.0048V15.3017C12.9297 15.6252 13.192 15.8876 13.5156 15.8876C13.8392 15.8876 14.1016 15.6252 14.1016 15.3017V11.0048C14.1015 10.6812 13.8392 10.4188 13.5156 10.4188Z" fill="#6F73EE"/>
<path d="M13.5156 10.4188C13.192 10.4188 12.9297 10.6812 12.9297 11.0048V15.3017C12.9297 15.6252 13.192 15.8876 13.5156 15.8876C13.8392 15.8876 14.1016 15.6252 14.1016 15.3017V11.0048C14.1015 10.6812 13.8392 10.4188 13.5156 10.4188Z" stroke="#6F73EE"/>
</g>
<defs>
<clipPath id="clip0_14_5">
<rect width="20" height="20" fill="white"/>
</clipPath>
</defs>
</svg>
