<svg width="35" height="24" viewBox="0 0 35 24" fill="none" xmlns="http://www.w3.org/2000/svg">
<rect x="1.13432" y="0.559815" width="33.5905" height="22.8805" rx="2.6775" fill="white" stroke="#EAEBED" stroke-width="0.486818"/>
<path fill-rule="evenodd" clip-rule="evenodd" d="M11.2361 16.146H9.17163L7.62357 10.2401C7.55009 9.9684 7.39407 9.72822 7.16458 9.61502C6.59186 9.33055 5.96075 9.10416 5.27228 8.98998V8.7626H8.5979C9.05688 8.7626 9.40112 9.10416 9.4585 9.50084L10.2617 13.761L12.3251 8.7626H14.3322L11.2361 16.146ZM15.4796 16.146H13.53L15.1354 8.7626H17.0851L15.4796 16.146ZM19.6075 10.808C19.6649 10.4104 20.0091 10.183 20.4107 10.183C21.0418 10.1259 21.7293 10.2401 22.303 10.5236L22.6472 8.93388C22.0735 8.7065 21.4424 8.59232 20.8697 8.59232C18.9774 8.59232 17.6004 9.61503 17.6004 11.0344C17.6004 12.1142 18.5758 12.6812 19.2642 13.0228C20.0091 13.3633 20.296 13.5907 20.2386 13.9313C20.2386 14.4422 19.6649 14.6695 19.0921 14.6695C18.4037 14.6695 17.7152 14.4993 17.0851 14.2148L16.7408 15.8055C17.4293 16.0889 18.1742 16.2031 18.8626 16.2031C20.9844 16.2592 22.303 15.2375 22.303 13.7039C22.303 11.7727 19.6075 11.6595 19.6075 10.808V10.808ZM29.1264 16.146L27.5783 8.7626H25.9155C25.5713 8.7626 25.227 8.98998 25.1123 9.33055L22.2456 16.146H24.2527L24.6533 15.0672H27.1193L27.3488 16.146H29.1264ZM26.2024 10.7509L26.7751 13.5336H25.1696L26.2024 10.7509Z" fill="#172B85"/>
</svg>
