<svg width="35" height="24" viewBox="0 0 35 24" fill="none" xmlns="http://www.w3.org/2000/svg">
<rect x="0.970689" y="0.559815" width="33.5905" height="22.8805" rx="2.6775" fill="white" stroke="#EAEBED" stroke-width="0.486818"/>
<path fill-rule="evenodd" clip-rule="evenodd" d="M13.5474 16.049C13.7 15.9698 13.9592 15.8658 14.2339 15.8658C14.8643 15.8658 15.2051 16.2915 15.2051 17.0837C15.2051 18.0091 14.7476 18.4595 14.0102 18.4595C13.7406 18.4595 13.3237 18.3754 13.0185 18.2168V14.7621L13.5474 14.6384V16.049ZM13.5424 18.0337C13.705 18.1031 13.8831 18.1129 14.0103 18.1129C14.3865 18.1129 14.6713 17.8853 14.6713 17.0837C14.6713 16.4549 14.4373 16.252 14.0967 16.252C13.8932 16.252 13.7458 16.3064 13.5424 16.4153V18.0337ZM8.12647 15.9301H8.16209L8.8535 18.4001H9.40263L10.2265 14.8906H9.63151L9.11287 17.5091H9.07743L8.37046 14.8906H7.91792L7.25691 17.5091H7.22129L6.65174 14.8906H6.08228L6.90607 18.4001H7.45512L8.12647 15.9301ZM12.4798 18.2317V17.8555C12.2001 18.0189 11.946 18.1129 11.6714 18.1129C11.1476 18.1129 10.8985 17.8504 10.8985 17.2566H12.5561V17.0735C12.5561 16.2668 12.1645 15.8658 11.529 15.8658C10.7663 15.8658 10.3747 16.4103 10.3747 17.1625C10.3747 17.9447 10.7256 18.4595 11.5798 18.4595C11.946 18.4595 12.251 18.3605 12.4798 18.2317ZM12.073 16.9251H10.9088C10.9646 16.4302 11.2034 16.1975 11.5138 16.1975C11.7884 16.1975 12.0478 16.4052 12.073 16.9251ZM17.5442 17.6576H17.5187L16.3797 14.8906H15.7645V18.4001H16.2221V15.9154H16.2678L17.3053 18.4001H17.6306L18.668 15.8559H18.7138V18.4001H19.263V14.8906H18.6324L17.5442 17.6576ZM19.8224 17.1625C19.8224 16.2963 20.3106 15.8658 20.9817 15.8658C21.653 15.8658 22.1413 16.2963 22.1413 17.1625C22.1413 18.009 21.6785 18.4595 20.9817 18.4595C20.285 18.4595 19.8224 18.009 19.8224 17.1625ZM21.6072 17.1625C21.6072 16.4944 21.3274 16.2124 20.9817 16.2124C20.6461 16.2124 20.3562 16.4944 20.3562 17.1625C20.3562 17.8409 20.6208 18.1129 20.9817 18.1129C21.3427 18.1129 21.6072 17.8409 21.6072 17.1625ZM23.9206 15.8658C23.3361 15.8658 22.8529 16.0984 22.6241 16.2321V18.4001H23.153V16.44C23.3105 16.3511 23.5699 16.2618 23.7734 16.2618C24.0327 16.2618 24.2308 16.3311 24.2308 16.7221V18.4001H24.7596V16.6082C24.7596 16.0984 24.531 15.8658 23.9206 15.8658ZM27.3376 17.8555V18.2317C27.1089 18.3605 26.8039 18.4595 26.4376 18.4595C25.5835 18.4595 25.2326 17.9447 25.2326 17.1625C25.2326 16.4103 25.6243 15.8658 26.3869 15.8658C27.0227 15.8658 27.4143 16.2668 27.4143 17.0735V17.2566H25.7566C25.7566 17.8504 26.0057 18.1129 26.5294 18.1129C26.8039 18.1129 27.0582 18.0189 27.3376 17.8555ZM25.7667 16.9251H26.9311C26.9058 16.4052 26.6463 16.1975 26.3717 16.1975C26.0614 16.1975 25.8227 16.4302 25.7667 16.9251ZM29.9364 15.95H29.3923L28.8124 17.7713H28.7821L28.1312 15.95H27.5718L28.5482 18.4248C28.4259 18.791 28.2126 19.0585 27.8668 19.0585V19.4641C28.4513 19.4641 28.7616 19.1079 29.0159 18.4248L29.9364 15.95Z" fill="#0068A3"/>
<path fill-rule="evenodd" clip-rule="evenodd" d="M17.6684 4.51601C18.3682 4.51601 19.0309 4.67464 19.6211 4.95625C19.7138 4.99906 19.8063 5.04615 19.899 5.09815L19.4887 5.45557L18.8723 4.83518L17.832 5.73841L17.214 5.08196L15.2761 6.78232L16.5185 8.11511L16.0302 8.53311L17.254 9.86791L16.7686 10.2849L18.5173 12.1796L19.5553 11.2494L20.4527 12.2462C20.2742 12.3812 20.0798 12.5084 19.8655 12.6258C19.2166 12.9861 18.4665 13.1923 17.6684 13.1923C15.2137 13.1923 13.2117 11.2433 13.2117 8.85429C13.2117 6.46473 15.2137 4.51601 17.6684 4.51601ZM16.8561 8.58003L17.9159 7.65106L18.8702 8.68289L17.8105 9.6115L16.8561 8.58003ZM18.6696 9.4338L17.6098 10.3625L18.5642 11.3943L19.624 10.4654L18.6696 9.4338ZM16.0979 6.81838L17.1576 5.88968L18.1117 6.92124L17.0519 7.84995L16.0979 6.81838ZM18.8375 5.62199L18.0426 6.31845L18.7582 7.09238L19.5531 6.39566L18.8375 5.62199ZM19.4548 9.50917L20.2499 8.81245L20.9655 9.58629L20.1707 10.2828L19.4548 9.50917ZM20.9487 10.3751L20.1541 11.0719L20.8697 11.8453L21.6645 11.1488L20.9487 10.3751ZM20.4742 7.49025L21.0041 7.02585L21.4811 7.54163L20.9515 8.00594L20.4742 7.49025ZM20.3271 5.49338L19.7972 5.95769L20.2742 6.47347L20.8042 6.00917L20.3271 5.49338ZM21.1516 9.02271L21.6815 8.55831L22.1586 9.07401L21.6287 9.5384L21.1516 9.02271ZM19.57 7.17756L18.7752 7.87437L19.491 8.64778L20.2856 7.95123L19.57 7.17756Z" fill="#0068A3"/>
</svg>
